<?xml version="1.0" encoding="utf-8"?>
<!-- Generator: Adobe Illustrator 21.0.2, SVG Export Plug-In . SVG Version: 6.00 Build 0)  -->
<svg version="1.1" id="Capa_1" xmlns="http://www.w3.org/2000/svg" xmlns:xlink="http://www.w3.org/1999/xlink" x="0px" y="0px"
	 viewBox="0 0 803.6 276" style="enable-background:new 0 0 803.6 276;" xml:space="preserve">
<style type="text/css">
	.st0{fill:#FFFFFF;}
</style>
<g>
	<path class="st0" d="M92.8,53.8c10.2-0.1,18.8,1.4,25.6,4.5c6.9,3.1,12.3,7.8,16.3,14c1.8,2.8,3.3,6.2,4.6,10.2
		c0.3,0.7,0.5,1.6,0.6,2.7c0.1,1.1,0.1,2.1-0.2,2.9c-0.4,0.7-1.1,1.3-2.1,1.9c-3.1,1.7-11.1,1.3-13.9-0.8c-1.1-0.8-1.9-2-2.3-3.5
		c-0.4-1.5-1-2.8-1.7-4c-2.1-3.6-4.8-6.5-8.1-8.5c-1.1-0.7-2.3-1.3-3.5-1.8c-1.2-0.5-2.6-0.9-3.9-1.4c-1.9-0.6-4.5-0.9-7.7-0.9
		c-4.5-0.1-9,1-13.3,2.2c-3.6,1.5-6.8,3.6-9.5,6.2c-2.8,2.6-4.9,5.8-6.4,9.4c-0.6,1.2-1,2.5-1.4,3.8C65.4,92,65,93.4,64.6,95
		c0,0-1.2,5.6-1.2,5.6c-0.6,2.9-0.6,6-0.7,8.9c-0.2,3.1,0.5,6.6,0.5,9.8c0.3,1.1,0.5,2.3,0.7,3.5c0.2,1.2,0.5,2.4,0.7,3.5
		c1.5,4.5,3.3,8.3,5.3,11.6c2,3.3,4.8,6.1,8.4,8.4c1.2,0.7,2.5,1.3,3.8,1.9c2.9,1.2,6.4,2.3,9.6,2.3c7.7,0,13.9-0.6,20.3-4.9
		c2.6-1.7,4.8-4,6.6-6.7c0.7-1.1,1.3-2.3,1.9-3.5c0.6-1.3,1.1-2.5,1.7-3.8c0.3-1.1,0.6-2.2,0.9-3.2c0.3-1,1-1.9,2-2.6
		c0.4-0.4,1.2-0.7,2.5-0.9c1.2-0.2,2.6-0.4,4.1-0.4c1.4-0.1,2.8,0,4.1,0.1c1.3,0.1,2.3,0.4,2.8,0.8c0.8,0.6,1.4,1.4,1.6,2.5
		c0.2,1.1,0.2,2.3-0.1,3.5c-0.7,2.1-1.4,4.1-2,5.9c-0.6,1.9-1.4,3.7-2.4,5.5c-2.1,4.2-4.7,7.8-7.8,11c-3.1,3.2-6.9,5.8-11.3,7.7
		c-1.1,0.6-2.3,1-3.5,1.4c-4.3,1.2-8.6,1.8-13.1,2.6c-2.8,0.5-5.6,0.1-8.4,0.3c-4.9,0.3-9.4-1.2-14-2.4c-1.7-0.4-3.3-1-4.8-1.7
		c-5-2.2-9.1-4.9-12.4-7.9c-3.2-3-6.3-6.8-9-11.2c-0.7-1.1-1.3-2.4-1.9-3.8c-1.1-2.9-2.6-5.8-3.1-9c-1.1-6.8-2.2-13.3-2.3-20.3
		c0-3,0.4-6.1,0.7-9.1c0.3-2.9,1.3-5.7,1.7-8.5c0.4-2.4,1-4.6,1.9-6.7c2.9-7.2,6.4-13.1,10.6-17.5c4.2-4.4,9.8-8.1,17-11.1
		c1.5-0.7,3.2-1.2,5-1.4c1.8-0.3,3.7-0.6,5.6-1c1-0.1,1.9-0.2,2.9-0.3C90.7,54,91.7,53.9,92.8,53.8z"/>
	<path class="st0" d="M256.2,155.7c0.4,2.2,0.2,4.1-0.6,5.5c-0.8,1.5-2,2.5-3.3,3.2c-1.3,0.7-4.1,0.8-5.7,1.1
		c-2.6,0.4-5.4,0.2-7.9-0.7c-3-1-5-2.3-6.1-3.9c-0.7-1-1.3-2.1-1.9-3.4c-0.6-1.3-1.2-2.4-2.1-3.2c-0.3-0.3-0.6-0.6-0.9-0.8
		c-0.3-0.3-0.8-0.4-1.3-0.2c-1.5,0.4-2.9,1.2-4.3,2.3c-1.3,1.1-2.6,2.1-3.9,2.9c-1.8,1.1-3.7,2.1-5.8,3c-5.3,2.3-10.2,2.8-15.8,3.9
		c-6.1,1.1-13.3-0.2-19.3-1.4c-1.1-0.2-2.2-0.5-3.1-0.9c-4.1-1.8-7.5-3.9-10.1-6.1c-2.6-2.3-4.7-5.5-6.3-9.7c-1.2-3-1.9-6.7-1.9-11
		v-4.4c0.1-0.7,0.2-1.4,0.3-2.2c0.1-0.8,0.2-1.6,0.3-2.4c0.6-1.5,1.1-3,1.7-4.6c0.5-1.5,1.2-2.9,2.1-4.2c2.5-4,5.9-7,10.2-9
		c4.3-1.9,10.1-4.4,15.3-5.7c9.7-2.4,14.9-2.8,22.9-3.7c3.5-0.4,6.7-1.6,9.8-2.2c3-0.6,5.5-2.2,7.3-4.7c0.8-1.1,1.5-2.5,2.1-4.3
		c0.5-1.7,0.5-3.6,0-5.7c-0.8-3.3-2.1-6-3.6-7.9c-1.6-1.9-3.9-3.5-6.8-4.6c-1.6-0.7-3.6-1.2-5.9-1.5c-2.3-0.3-4.7-0.4-7.2-0.4
		c-2.5,0-4.9,0.2-7.3,0.4c-2.4,0.3-4.4,0.7-6,1.2c-2.4,0.8-4.6,2-6.8,3.5c-1.1,0.8-2.1,1.9-3,3.2s-1.7,2.7-2.4,4.3
		c-0.4,1.1-0.8,2.3-1.1,3.5c-0.4,1.3-1,2.2-2,2.9c-0.6,0.4-1.5,0.7-2.8,0.9c-1.3,0.2-2.7,0.3-4.1,0.3c-1.4,0-2.7-0.1-4-0.3
		c-1.3-0.2-2.3-0.5-2.8-0.9c-0.6-0.4-1-1.1-1.2-2.1c-0.3-1-0.3-2,0-3.1c0.4-1.8,0.9-3.5,1.3-5.1c0.5-1.6,1.1-3.2,1.8-4.7
		c2.6-4.9,6-8.6,10-11.4c4-2.7,9-4.9,14.9-6.5c1.4-0.3,2.8-0.5,4.3-0.6c2.4-0.2,4.7-0.9,7.1-0.8c2.2,0.1,4.6-0.3,6.9-0.3
		c2.5,0.1,5.1,0.3,7.6,0.5c4.4,0.5,8.8,1.4,13.1,2.8c7.2,2.4,12.2,6.9,15.1,13.5c1.2,2.8,2,6,2.2,9.7c0.2,3.7,0.3,7.5,0.3,11.6v46
		c0,1.9,0.1,3.8,0.2,5.6c0.1,1.8,0.6,3.2,1.2,4.4c0.7,1,1.6,1.7,2.7,2.1c1.3,0.6,2.4,0.9,3.5,1.1
		C255.7,151.3,255.8,153.7,256.2,155.7z M226.5,132.6c1-2.5,1.6-5.2,1.9-7.9c0.4-3.8,0.4-8.7-2.7-11.6c-3.1-2.8-8.1-2.2-11.9-1.7
		c-5.6,0.8-11.2,2.1-16.8,3.2c-9.8,2.1-20.2,5.1-22.2,16c-0.9,4.7-0.1,9.9,3.1,13.6c3.4,4,8.8,5.2,13.9,5.8c4.4,0.5,8.1,0,12.4-0.8
		c2.6-0.5,5.1-1,7.6-1.9c4.6-1.6,8.6-4.4,11.4-8.4C224.5,137.1,225.6,134.9,226.5,132.6z"/>
	<path class="st0" d="M323.4,54.2c8.7-0.3,15.7,0.9,21,3.5c5.2,2.6,9.5,6.6,12.6,11.9c0.8,1.4,1.5,2.9,2,4.5
		c0.5,1.6,0.9,3.2,1.3,4.9c0.7,2.6,1.1,5.5,1.3,8.5c0.1,3.1,0.2,6.2,0.2,9.4v22.3v32.5c0,2.4,0,4.7-0.1,7.1c-0.1,2.4-1,3.9-2.8,4.6
		c-0.7,0.3-1.4,0.4-2.2,0.5c-0.8,0.1-1.6,0.1-2.4,0.1c-1.8,0-3.5-0.1-5.2-0.1c-1.7-0.1-2.8-0.7-3.5-1.8c-0.7-1-1-2.2-1-3.8
		c0-1.5,0-3,0-4.6v-17.9v-33.9c0-3.7-0.1-7.4-0.2-11.1c-0.1-3.7-0.8-6.8-1.9-9.5c-1.1-2.8-2.8-5-5-6.8c-2.2-1.7-4.8-3.1-7.7-4.1
		c-4.5-1.5-9.7-1.5-14.3-0.4c-1.8,0.4-3.5,0.9-5.1,1.4c-2.6,0.8-4.9,2.4-7.4,3.6c-4.8,3.5-8.4,8.7-10.6,15.6
		c-1,3.3-1.9,7.2-1.9,10.6c0,0,0,4.3,0,4.4c0,1.1,0,2.2,0,3.3v6.3v20v18.3c0,1.5,0,3.1,0,4.7c0,1.6-0.4,2.9-1,3.9
		c-0.7,1.1-1.9,1.7-3.6,1.8c-1.7,0.1-3.5,0.1-5.3,0.1c-1.1,0-2.2-0.1-3.1-0.2c-1-0.1-1.8-0.5-2.5-1c-1.1-0.7-1.7-2-1.7-4
		c0-2,0-3.8,0-5.6v-24.5V78.1V65.4c0-1.2,0-2.5,0-3.7c0-1.3,0.3-2.2,0.8-2.9c1.2-1.5,2.5-1.8,4.5-2.1c2.4-0.3,6.4-0.8,8.6,0.6
		c3,1.9,1.8,5.6,2.7,8.5c0.3,0.8,0.8,1.5,1.7,2.1c1.7,0.1,3-0.5,4-1.9c2.3-3.1,5.8-5.2,9.1-7.2C310.3,55.7,317,54.2,323.4,54.2z"/>
	<path class="st0" d="M438.8,54.2c8.7-0.3,15.7,0.9,21,3.5c5.2,2.6,9.5,6.6,12.7,11.9c0.8,1.4,1.5,2.9,2,4.5
		c0.5,1.6,0.9,3.2,1.3,4.9c0.7,2.6,1.1,5.5,1.2,8.5c0.1,3.1,0.2,6.2,0.2,9.4v22.3v32.5c0,2.4,0,4.7-0.1,7.1c-0.1,2.4-1,3.9-2.8,4.6
		c-0.7,0.3-1.4,0.4-2.2,0.5c-0.8,0.1-1.6,0.1-2.4,0.1c-1.8,0-3.5-0.1-5.2-0.1c-1.7-0.1-2.8-0.7-3.5-1.8c-0.7-1-1-2.2-1-3.8
		c0-1.5,0-3,0-4.6v-17.9v-33.9c0-3.7-0.1-7.4-0.2-11.1c-0.1-3.7-0.8-6.8-1.9-9.5c-1.1-2.8-2.8-5-5-6.8c-2.2-1.7-4.8-3.1-7.7-4.1
		c-4.5-1.5-9.7-1.5-14.3-0.4c-1.8,0.4-3.5,0.9-5.1,1.4c-2.6,0.8-4.9,2.4-7.4,3.6c-4.8,3.5-8.4,8.7-10.6,15.6
		c-1,3.3-1.9,7.2-1.9,10.6c0,0,0,4.3,0,4.4c0,1.1,0,2.2,0,3.3v6.3v20v18.3c0,1.5,0,3.1,0,4.7c0,1.6-0.3,2.9-1,3.9
		c-0.7,1.1-1.9,1.7-3.6,1.8c-1.7,0.1-3.5,0.1-5.3,0.1c-1.1,0-2.2-0.1-3.1-0.2c-1-0.1-1.8-0.5-2.5-1c-1.1-0.7-1.7-2-1.7-4
		c0-2,0-3.8,0-5.6v-24.5V78.1V65.4c0-1.2,0-2.5,0-3.7c0-1.3,0.3-2.2,0.8-2.9c1.2-1.5,2.5-1.8,4.5-2.1c2.4-0.3,6.4-0.8,8.6,0.6
		c3,1.9,1.8,5.6,2.7,8.5c0.3,0.8,0.8,1.5,1.6,2.1c1.7,0.1,3-0.5,4.1-1.9c2.3-3.1,5.8-5.2,9.1-7.2C425.7,55.7,432.5,54.2,438.8,54.2z
		"/>
	<path class="st0" d="M499.2,56.3c1.8,0,3.9-0.1,6.2-0.1c2.4-0.1,4.1,0.2,5.2,0.9c1.1,0.7,1.9,1.6,2.4,2.7c0.5,1.1,1,2.3,1.5,3.5
		c0.7,1.8,3.1,9,3.7,10.8c0.7,1.7,18.6,51.8,19.3,53.8c0.7,2,1.4,4,2.1,5.9c0.4,1,0.8,2,1.3,3c0.4,1,1.1,1.7,2.1,2
		c1.1,0.4,2,0,2.6-1.2c0.6-1.2,1.1-2.1,1.3-2.8c1.1-2.4,24.9-72.2,25.2-73.4c0.4-1.2,0.9-2.2,1.6-3c1-1.2,2.3-2,4-2.1
		c1.7-0.1,3.6-0.2,5.7-0.2c1.1,0,2.2,0,3.2,0.1c1.1,0.1,1.9,0.3,2.6,0.7c1.2,0.8,1.6,2.2,1,4c-0.6,1.8-1,3.2-1.4,4.2
		c-0.1,0.3-0.2,0.6-0.3,0.8c-0.1,0.3-0.2,0.6-0.3,0.8c-1.5,3.9-16.5,43.4-17.6,46.2c-4,9.6-7.7,19.2-11.2,28.9
		c-3.5,9.7-21.9,49.1-22.2,49.9c-2.2,5.1-4.6,10.2-7.1,15.3c-2.5,5.1-6,9-10.4,11.8c-4,2.2-9.3,4-13.9,4c-3,0-6.1-0.7-9-1.5
		c-1-0.3-1.8-0.8-2.4-1.7c-0.7-0.8-1.1-1.9-1.1-3c-0.1-1.2-0.1-2.5-0.1-3.8c0-1,0-1.9,0.1-2.8s0.3-1.6,0.7-2.2c1-1.5,2.6-2,5-1.3
		c4.9,1.4,11.3,0.1,14.8-3.5c2.8-2.9,20.4-40.7,19.8-42.6c-0.7-2.2-1.4-4.3-2.2-6.3c-0.8-1.9-1.5-3.9-2.4-5.8
		c-1.2-2.9-2.4-5.8-3.5-8.7c-1.1-2.9-2.2-5.8-3.3-8.5c-0.8-1.9-1.6-3.8-2.3-5.6c-0.7-1.8-1.4-3.7-2.1-5.6
		c-2.5-6.1-4.9-12.2-7.4-18.3c-2.4-6.1-4.9-12.2-7.4-18.3c-1.4-3.2-2.6-6.3-3.7-9.3c-1.1-3-2.3-6-3.5-9c-0.3-0.8-0.7-2-1.2-3.4
		c-0.6-1.5-0.5-2.7,0.2-3.6c0.4-0.7,1.3-1.2,2.5-1.5c0.3-0.1,0.6-0.2,0.9-0.1C498.6,56.4,498.9,56.4,499.2,56.3z"/>
	<g>
		<path class="st0" d="M57.6,186.8c0.4,0,0.9,0,1.4,0c0.5,0,0.9,0.1,1.1,0.4c0.2,0.2,0.3,0.5,0.3,0.9c0,0.4,0,0.8,0,1.2v4.5v20.6
			v5.7c0,0.4,0,0.9,0,1.3c0,0.5-0.1,0.9-0.3,1.1c-0.1,0.2-0.3,0.3-0.4,0.3c-0.2,0-0.4,0.1-0.7,0.2h-0.7c-0.4,0-0.7,0-1.1,0
			c-0.3,0-0.6-0.1-0.8-0.3c-0.2-0.3-0.3-0.6-0.3-1c0-0.4,0-0.8,0-1.3v-4.7v-21.2v-5c0-0.4,0-0.8-0.1-1.2c0-0.4,0.1-0.8,0.3-1
			c0.1-0.2,0.4-0.4,0.8-0.5c0.1,0,0.2,0,0.2,0C57.4,186.8,57.5,186.8,57.6,186.8z"/>
		<path class="st0" d="M68.7,191.7c-0.3-0.2-0.4-0.6-0.4-1.1c0-0.5,0-1,0-1.6c0-0.3,0-0.6,0-0.9c0-0.3,0.1-0.6,0.2-0.8
			c0.1-0.3,0.4-0.5,0.8-0.6c0.1,0,0.2,0,0.2,0c0.1,0,0.2,0,0.2,0c0.6,0,1.1,0,1.6,0.1c0.5,0,0.9,0.3,1,0.6c0.1,0.2,0.2,0.4,0.2,0.7
			c0,0.3,0,0.6,0,0.9c0,0.6,0,1.2,0,1.7c0,0.5-0.2,0.9-0.7,1.1c-0.2,0.1-0.3,0.1-0.5,0.1c-0.2,0-0.4,0-0.6,0c-0.4,0-0.7,0-1.1,0
			C69.2,192,68.9,191.9,68.7,191.7z M72.4,220.7c0,0.3,0,0.7,0,1c0,0.4-0.1,0.6-0.2,0.8c-0.1,0.2-0.3,0.3-0.5,0.4
			c-0.2,0.1-0.4,0.1-0.7,0.2h-0.8c-0.5,0-0.8,0-1.1-0.1c-0.3-0.1-0.6-0.2-0.7-0.5c-0.1-0.2-0.2-0.5-0.2-0.8c0-0.3,0-0.6,0-0.9v-21.6
			c0-0.4,0-0.7,0-1.1c0-0.4,0.1-0.6,0.3-0.9c0.1-0.2,0.3-0.3,0.4-0.3c0.2,0,0.4-0.1,0.6-0.2c0.1,0,0.2,0,0.2,0.1
			c0.1,0,0.2,0,0.2-0.1c0.4,0,0.9,0,1.3,0.1c0.5,0,0.8,0.2,0.9,0.4c0.2,0.2,0.3,0.5,0.3,0.8c0,0.3,0,0.7,0,1V220.7z"/>
		<path class="st0" d="M88,186.4c0.6,0,1.2,0,1.9,0c0.7,0,1.2,0.2,1.4,0.6c0.1,0.2,0.2,0.5,0.3,0.8c0,0.3,0.1,0.6,0.1,0.9
			c0,0.4-0.1,0.8-0.3,1.1c-0.1,0.2-0.3,0.3-0.6,0.3c-0.3,0.1-0.5,0.1-0.8,0.1c-0.3,0-0.6,0-0.9,0c-0.3,0-0.6,0-0.8,0
			c-1,0.3-1.6,0.7-1.9,1.3c-0.3,0.6-0.4,1.5-0.4,2.7c0,0.2,0,0.5-0.1,0.7c0,0.3,0,0.5,0.1,0.7c0.1,0.5,0.3,0.9,0.7,1.1
			c0.3,0.1,0.6,0.2,1,0.2c0.4,0,0.8,0,1.2,0h0.8c0.1,0.1,0.2,0.1,0.3,0c0.1,0,0.2,0,0.3,0.1c0.3,0.1,0.6,0.3,0.7,0.6
			c0.1,0.3,0.1,0.7,0.1,1.1c0,0.2-0.1,0.3-0.1,0.4c0,0.1,0,0.3,0,0.4c-0.1,0.5-0.3,0.8-0.7,1c-0.4,0.2-1,0.2-1.7,0.1
			c-0.7-0.1-1.3-0.1-1.8,0.1c-0.3,0.1-0.5,0.2-0.6,0.4c-0.1,0.2-0.3,0.4-0.3,0.7c-0.1,0.2-0.1,0.5-0.1,0.8c0.1,0.3,0.1,0.6,0.1,0.9
			v3.4v10.8v2.6c0,0.2,0,0.4,0,0.7c0,0.2,0,0.4-0.1,0.6v0.4c0,0.1-0.1,0.3-0.1,0.4c0,0.1-0.1,0.2-0.2,0.3c-0.2,0.2-0.4,0.4-0.8,0.4
			c-0.3,0-0.7,0.1-1.1,0.1h-1c-0.2-0.1-0.3-0.1-0.5-0.2c-0.2-0.1-0.3-0.2-0.4-0.3c-0.1-0.1-0.1-0.3-0.2-0.7v-0.4
			c-0.1-0.2-0.1-0.3-0.1-0.5c0-0.2,0-0.4,0-0.5v-2v-13.9c0-0.4,0-0.8,0-1.2c0-0.4,0-0.8,0-1.1c0-0.4-0.1-0.7-0.2-0.9
			c-0.1-0.3-0.3-0.5-0.6-0.6c-0.2-0.1-0.4-0.2-0.7-0.2c-0.3,0-0.5,0-0.8,0c-0.3,0-0.5,0-0.8,0c-0.3,0-0.5,0-0.7-0.1
			c-0.3-0.1-0.5-0.4-0.7-0.9c0-0.2-0.1-0.3-0.1-0.5c0-0.1,0-0.3,0-0.4c0-0.5,0.1-0.9,0.2-1.2c0.1-0.3,0.3-0.5,0.7-0.6
			c0.2-0.1,0.5-0.1,0.8-0.1c0.3,0,0.6,0,1,0c0.3,0,0.6,0,0.9-0.1c0.3-0.1,0.5-0.2,0.6-0.4c0.3-0.3,0.4-0.7,0.3-1.3
			c0-0.6,0-1.1,0-1.6c0-0.7,0-1.3,0.1-1.9c0.1-0.6,0.2-1.1,0.4-1.6c0.4-0.8,0.9-1.5,1.5-2c0.6-0.5,1.4-0.9,2.3-1.2
			c0.2-0.1,0.4-0.1,0.6-0.1c0.2,0,0.4-0.1,0.7-0.1c0.1,0,0.2,0,0.4,0C87.9,186.4,88,186.4,88,186.4z"/>
		<path class="st0" d="M118.4,208.9c0.1,0.3,0.1,0.7,0,1.1c-0.1,0.4-0.2,0.7-0.3,0.9c-0.2,0.1-0.4,0.2-0.7,0.3
			c-0.3,0.1-0.7,0.1-1.1,0.1c-0.4,0-0.8,0-1.2,0c-0.4,0-0.8,0-1.1,0h-13c-0.3,0-0.5,0-0.8,0c-0.3,0-0.5,0.1-0.7,0.2
			c-0.1,0.1-0.3,0.2-0.4,0.4c-0.1,0.1-0.1,0.3-0.2,0.4c-0.1,0.2-0.1,0.4,0,0.5c0.1,0.2,0.1,0.3,0.1,0.5c0,0.1,0,0.3,0.1,0.4
			c0.1,0.3,0.1,0.5,0.2,0.8c0.1,0.3,0.2,0.6,0.3,0.9c0.8,1.8,2.1,3.1,3.9,3.9c0.2,0.1,0.4,0.2,0.7,0.3c0.3,0.1,0.5,0.2,0.7,0.2
			c0.1,0,0.3,0.1,0.5,0.1c0.5,0.1,1.1,0.2,1.9,0.2c0.8,0,1.4-0.1,1.9-0.2c0.5-0.1,0.9-0.3,1.3-0.4c0.4-0.2,0.7-0.4,1.1-0.6
			c0.4-0.2,0.7-0.5,1-0.9c0.3-0.3,0.5-0.7,0.7-1c0.2-0.3,0.4-0.7,0.5-1.1s0.4-0.6,0.8-0.8c0.1-0.1,0.4-0.1,0.7-0.2
			c0.3,0,0.6-0.1,0.9,0c0.3,0,0.6,0.1,0.9,0.1c0.3,0,0.5,0.1,0.6,0.2c0.3,0.2,0.4,0.6,0.3,1.2c-0.3,0.9-0.6,1.7-1.1,2.5
			c-0.7,1.1-1.4,2-2.3,2.7c-0.9,0.7-2,1.3-3.3,1.7c-0.3,0.1-0.7,0.2-1,0.3c-0.3,0.1-0.7,0.1-1.1,0.2c-0.2,0-0.3,0.1-0.5,0.1
			c-0.2,0-0.3,0-0.5,0.1h-0.5c-0.2,0-0.4,0-0.6,0c-0.2,0-0.4,0-0.5,0h-0.5c-0.2,0-0.3-0.1-0.5-0.1c-0.1,0-0.3,0-0.4-0.1
			c-0.2,0-0.4-0.1-0.6-0.1c-0.2,0-0.4-0.1-0.6-0.1c-0.3-0.1-0.6-0.1-0.9-0.2c-0.3-0.1-0.6-0.2-0.9-0.3c-0.1-0.1-0.3-0.1-0.4-0.1
			c-0.1,0-0.2,0-0.4-0.1c-0.5-0.2-1-0.5-1.6-0.9c-1-0.6-1.8-1.4-2.5-2.4c-0.7-0.9-1.3-2-1.8-3.1c-0.2-0.4-0.3-0.8-0.4-1.2
			c-0.1-0.4-0.2-0.8-0.3-1.2c0-0.1-0.1-0.3-0.1-0.4s0-0.2-0.1-0.4c-0.1-0.3-0.1-0.6-0.2-0.9c-0.1-0.3-0.1-0.6-0.2-0.9v-0.7
			c0-0.1-0.1-0.3-0.1-0.6c0-0.3,0-0.5,0-0.7v-0.6c0.1-0.2,0.1-0.4,0.1-0.5c0-0.2,0-0.4,0-0.5c0.1-0.5,0.2-1.1,0.3-1.6
			c0.1-0.6,0.2-1.1,0.4-1.5c0.2-0.4,0.3-0.7,0.5-1.1c0.2-0.4,0.3-0.8,0.5-1.2c0.7-1.2,1.6-2.2,2.5-3.1c0.9-0.9,2.1-1.6,3.5-2.2
			c0.4-0.2,0.8-0.3,1.3-0.4c0.4-0.1,0.9-0.2,1.3-0.3c0.2,0,0.3-0.1,0.5-0.1c0.1,0,0.3,0,0.5,0c0.1,0,0.2,0,0.3,0
			c0.1,0,0.2,0,0.3-0.1c1.4,0,2.7,0.1,3.7,0.4c1,0.3,2,0.8,2.8,1.3c0.2,0.1,0.3,0.2,0.4,0.3c0.1,0.1,0.2,0.2,0.4,0.3
			c0.3,0.2,0.6,0.5,0.8,0.7c0.3,0.3,0.6,0.5,0.7,0.8c0.5,0.7,1,1.4,1.4,2c0.2,0.4,0.4,0.8,0.6,1.2c0.1,0.5,0.3,0.9,0.5,1.3
			c0.2,0.4,0.3,0.9,0.4,1.4c0.1,0.5,0.2,0.9,0.3,1.4c0,0.3,0.1,0.5,0.1,0.7C118.4,208.5,118.4,208.7,118.4,208.9z M113.5,207.2
			c0.1-0.1,0.2-0.3,0.3-0.5c0.1-0.2,0.1-0.5,0-0.7c-0.2-0.7-0.5-1.4-0.9-2.1c-0.5-0.8-1-1.4-1.6-2c-0.6-0.6-1.3-1-2.2-1.4
			c-0.2-0.1-0.5-0.1-0.7-0.2c-0.2-0.1-0.5-0.1-0.8-0.2c-0.3-0.1-0.6-0.1-0.9-0.1c-0.3,0-0.6,0-0.9,0c-0.1,0.1-0.2,0.1-0.4,0.1
			c-0.1,0-0.3,0-0.4,0c-0.3,0.1-0.5,0.1-0.8,0.2c-0.2,0-0.5,0.1-0.7,0.2c-1,0.4-1.8,0.9-2.4,1.5c-0.6,0.6-1.1,1.4-1.6,2.3
			c-0.1,0.2-0.2,0.4-0.3,0.6c-0.1,0.3-0.2,0.5-0.3,0.8c-0.1,0.3-0.1,0.6-0.1,0.9c0.1,0.3,0.2,0.5,0.4,0.6c0.3,0.2,0.8,0.3,1.4,0.3
			c0.6,0,1.2,0,1.7,0h7.7c0.5,0,1.1,0,1.8,0C112.8,207.6,113.3,207.5,113.5,207.2z"/>
		<path class="st0" d="M131.8,196.2c2.4,0,4.5,0.2,6.2,0.8c1.7,0.6,2.9,1.6,3.9,3.1c0.2,0.4,0.4,0.8,0.6,1.1
			c0.1,0.4,0.3,0.8,0.4,1.3c0.1,0.2,0.1,0.5,0,0.7c0,0.3-0.1,0.5-0.1,0.6c-0.1,0.1-0.2,0.1-0.3,0.2c-0.1,0.1-0.2,0.1-0.3,0.2
			c-0.2,0.1-0.3,0.1-0.5,0.1c-0.2,0-0.3,0-0.5,0c-0.3,0.1-0.6,0.1-1.1,0c-0.5-0.1-0.8-0.1-0.9-0.2c-0.3-0.2-0.4-0.4-0.5-0.7
			c-0.1-0.3-0.2-0.6-0.4-0.8c-0.3-0.6-0.7-1-1.3-1.5c-0.4-0.3-0.8-0.5-1.2-0.6c-0.4-0.1-0.9-0.3-1.4-0.4c-0.2-0.1-0.3-0.1-0.5-0.1
			c-0.2,0-0.3,0-0.5,0c-0.2-0.1-0.5-0.1-0.8-0.1c-0.3,0-0.6,0-0.8,0.1h-0.3c-0.2,0.1-0.4,0.1-0.5,0.1c-0.2,0-0.3,0-0.5,0.1
			c-0.9,0.2-1.6,0.5-2.2,0.9c-0.6,0.4-1,1-1.2,1.9c-0.1,0.2-0.1,0.5,0,0.7c0.1,0.3,0.1,0.5,0.2,0.6c0.2,0.5,0.5,0.9,0.7,1.1
			c0.3,0.2,0.7,0.5,1.1,0.7c0.5,0.3,1.1,0.6,1.8,0.7c0.7,0.2,1.4,0.3,2,0.5c0.5,0.1,0.9,0.2,1.3,0.3c0.4,0.1,0.9,0.2,1.3,0.3
			c0.7,0.2,1.4,0.4,2.1,0.6c0.7,0.2,1.3,0.4,2,0.7c0.2,0.1,0.3,0.1,0.5,0.2c0.2,0.1,0.3,0.2,0.5,0.2c0.7,0.4,1.3,0.9,1.8,1.4
			c0.5,0.5,0.9,1.2,1.3,2c0.1,0.2,0.1,0.5,0.2,1c0.1,0.2,0.1,0.5,0.1,0.7c0,0.3,0,0.5,0,0.8v0.5c-0.1,0.3-0.1,0.5-0.1,0.7
			c0,0.3,0,0.5-0.1,0.7c-0.1,0.4-0.2,0.7-0.4,1.1c-0.1,0.3-0.3,0.6-0.5,0.9c-0.6,0.9-1.2,1.6-2.1,2.1c-0.8,0.5-1.8,1-2.8,1.4
			c-0.3,0.1-0.6,0.2-0.9,0.2c-0.3,0-0.6,0.1-0.9,0.2c-0.3,0.1-0.7,0.1-1,0.1c-0.3,0-0.7,0-1,0.1h-0.5c-0.2,0-0.4,0.1-0.7,0.1
			c-0.3,0-0.5,0-0.7-0.1h-0.6c-0.2-0.1-0.4-0.1-0.7-0.1c-0.2,0-0.4,0-0.6-0.1c-0.2,0-0.4-0.1-0.7-0.1c-0.3-0.1-0.5-0.1-0.8-0.2
			c-0.3,0-0.5-0.1-0.8-0.2c-1-0.3-2-0.8-2.7-1.3c-0.8-0.5-1.4-1.2-2-2c-0.3-0.4-0.6-0.9-0.8-1.4c-0.2-0.5-0.4-1-0.6-1.6
			c-0.1-0.2-0.1-0.4-0.1-0.7c0-0.3,0.1-0.5,0.1-0.7c0.1-0.1,0.3-0.3,0.5-0.4c0.2-0.1,0.4-0.1,0.7-0.1c0.3,0,0.6,0,0.9,0
			c0.3,0,0.6,0.1,0.9,0.1c0.3,0.1,0.5,0.1,0.6,0.2c0.2,0.2,0.4,0.4,0.5,0.7c0.1,0.3,0.2,0.6,0.3,0.9c0.3,0.8,0.8,1.3,1.4,1.7
			c0.4,0.3,0.9,0.5,1.4,0.7c0.5,0.2,1.1,0.4,1.6,0.5l1.1,0.2h0.3c0.2,0.1,0.6,0.1,0.9,0.1c0.4,0,0.7,0,1-0.1c0.2,0,0.4,0,0.6-0.1
			c0.2,0,0.4-0.1,0.6-0.1c0.2,0,0.4,0,0.6-0.1c1-0.3,1.8-0.6,2.3-1.1c0.6-0.4,1-1.2,1.2-2.2c0.1-0.2,0.1-0.4,0.1-0.6
			c-0.1-0.2-0.1-0.4-0.1-0.5c-0.2-0.7-0.4-1.1-0.7-1.4c-0.3-0.3-0.7-0.6-1.2-0.9c-0.3-0.2-0.7-0.4-1-0.5c-0.4-0.2-0.7-0.3-1.1-0.4
			c-0.1-0.1-0.2-0.1-0.3-0.1c-0.1,0-0.2,0-0.3-0.1c-1.2-0.4-2.4-0.7-3.6-0.9c-1.2-0.2-2.4-0.5-3.5-0.9c-0.3-0.2-0.7-0.3-1-0.4
			c-0.3-0.1-0.6-0.2-0.9-0.4c-0.6-0.4-1.2-0.8-1.8-1.3c-0.6-0.5-1-1.1-1.3-1.8c-0.1-0.3-0.2-0.5-0.2-0.7c-0.1-0.2-0.1-0.5-0.2-0.8
			c-0.1-0.4-0.1-0.9-0.1-1.4c0-0.5,0.1-1,0.2-1.3c0.1-0.2,0.1-0.3,0.1-0.5c0-0.1,0-0.2,0.1-0.4c0.3-0.8,0.7-1.5,1.2-2
			c0.5-0.6,1.1-1.1,1.8-1.5c0.5-0.3,1.1-0.5,1.7-0.7c0.6-0.2,1.3-0.4,1.9-0.5c0.2,0,0.5-0.1,0.7-0.1c0.2,0,0.5-0.1,0.7-0.1
			c0.1,0,0.3,0,0.4,0C131.7,196.3,131.8,196.3,131.8,196.2z"/>
		<path class="st0" d="M153,188.9c0.5,0,1,0,1.5,0s0.9,0.2,1.1,0.4c0.2,0.2,0.3,0.5,0.3,0.8c0,0.3,0,0.7,0,1.1v2.9
			c0,0.3,0,0.6,0,0.9c0,0.3,0,0.5,0.1,0.7c0.1,0.5,0.4,0.8,0.9,0.9c0.2,0,0.3,0.1,0.5,0.1c0.2,0,0.3,0,0.5,0c0.4,0,0.8,0,1.4,0
			c0.5,0,0.9,0,1.2,0.1c0.3,0.2,0.5,0.4,0.6,0.6c0.1,0.1,0.1,0.3,0.1,0.5c0,0.2,0,0.3,0,0.5c0,0.4,0,0.7,0,1
			c-0.1,0.3-0.2,0.6-0.4,0.7c-0.2,0.2-0.5,0.3-0.8,0.3c-0.4,0-0.7,0-1.1,0c-0.4,0-0.8,0-1.1,0c-0.4,0-0.7,0.1-1,0.2
			c-0.2,0.1-0.4,0.3-0.5,0.5c-0.1,0.2-0.2,0.5-0.2,0.9c0,0.3,0,0.7,0,1c0,0.3,0,0.7,0,1v10.1c0,0.8,0,1.5,0,2.4
			c0,0.8,0.1,1.5,0.4,1.9c0.2,0.3,0.4,0.5,0.7,0.5c0.3,0.1,0.6,0.2,1,0.3c0.1,0,0.2,0.1,0.3,0c0.1,0,0.2,0,0.3,0h0.7
			c0.3,0,0.7,0,0.9,0.1c0.3,0.1,0.5,0.2,0.6,0.4c0.1,0.1,0.1,0.3,0.2,0.5c0.1,0.3,0.1,0.5,0.1,0.8c0,0.3,0,0.5,0,0.8
			c0,0.3-0.1,0.5-0.2,0.6c-0.1,0.2-0.4,0.4-0.8,0.5c-0.3,0.1-0.6,0.1-0.9,0.1c-0.4,0-0.6,0-0.9,0c-0.2,0-0.4,0-0.6,0
			c-0.2,0-0.4,0-0.6,0h-0.6c-0.2,0-0.3-0.1-0.5-0.1c-0.2,0-0.3,0-0.5,0c-0.7-0.2-1.3-0.4-1.7-0.6c-0.5-0.2-0.9-0.6-1.2-1.1
			c-0.5-0.7-0.7-1.5-0.8-2.6c-0.1-1-0.1-2.2-0.1-3.3V202c-0.1-0.4-0.2-0.8-0.3-1c-0.1-0.2-0.3-0.4-0.7-0.5c-0.2-0.1-0.3-0.1-0.4,0
			c-0.1,0.1-0.3,0-0.4-0.1H149c-0.4,0-0.8,0-1.1-0.1c-0.3-0.1-0.5-0.3-0.6-0.6c-0.1-0.1-0.1-0.3-0.1-0.5c0-0.2,0-0.3,0-0.5
			c0-0.5,0.1-0.9,0.1-1.2c0.1-0.3,0.3-0.5,0.6-0.7c0.4-0.1,0.8-0.2,1.4-0.1c0.6,0.1,1.1,0,1.5-0.1c0.3-0.2,0.5-0.4,0.7-0.7
			c0.1-0.2,0.1-0.4,0.1-0.8c0-0.3,0-0.6,0-0.9v-3.2c0-0.3,0-0.6,0-0.8c0-0.3,0-0.5,0.1-0.7c0.1-0.3,0.4-0.5,0.8-0.7
			c0.1,0,0.2,0,0.3,0C152.9,188.9,152.9,188.9,153,188.9z"/>
		<path class="st0" d="M165.6,196.8c0.5,0,0.9,0,1.5,0c0.6,0,1,0.1,1.3,0.2c0.3,0.2,0.5,0.4,0.6,0.7c0.1,0.3,0.2,0.6,0.4,0.9
			c0.2,0.5,0.3,0.9,0.5,1.3c0.1,0.4,0.3,0.9,0.5,1.3c0.2,0.4,0.3,0.8,0.5,1.2c0.1,0.4,0.3,0.8,0.5,1.2c0.2,0.4,0.3,0.8,0.4,1.2
			c0.1,0.4,0.2,0.8,0.4,1.2c0.4,1,0.8,2,1.1,3.1c0.3,1.1,0.7,2.1,1.1,3.1c0.1,0.1,0.1,0.3,0.1,0.4c0,0.1,0.1,0.2,0.1,0.3
			c0.2,0.5,0.4,0.9,0.6,1.4c0.2,0.5,0.3,1,0.5,1.4c0.1,0.2,0.2,0.5,0.3,0.7c0.1,0.3,0.3,0.4,0.5,0.5c0.3,0.1,0.5,0,0.6-0.3
			c0.2-0.3,0.3-0.5,0.3-0.7c0.3-0.6,0.5-1.2,0.7-1.8c0.2-0.6,0.4-1.3,0.6-1.9c0.3-0.8,0.6-1.6,0.8-2.4c0.3-0.8,0.5-1.6,0.9-2.3
			c0.1-0.2,0.1-0.4,0.2-0.7c0.1-0.3,0.3-0.6,0.4-0.9c0.1-0.3,0.2-0.6,0.3-0.9c0.1-0.2,0.1-0.3,0.2-0.5c0-0.1,0.1-0.3,0.2-0.5
			c0.2-0.4,0.3-0.8,0.4-1.2c0.1-0.4,0.3-0.9,0.4-1.2c0.1-0.2,0.1-0.3,0.2-0.5c0-0.1,0.1-0.3,0.2-0.5c0.1-0.3,0.2-0.6,0.4-0.9
			c0.1-0.3,0.2-0.6,0.3-1c0.1-0.3,0.2-0.6,0.3-0.8c0.1-0.3,0.2-0.5,0.4-0.8c0.2-0.3,0.6-0.5,1-0.5c0.4,0,0.9-0.1,1.4-0.1
			c0.3,0,0.5,0,0.8,0.1c0.3,0,0.5,0.1,0.6,0.2c0.3,0.2,0.4,0.5,0.2,1c-0.1,0.5-0.2,0.8-0.4,1c0,0.1-0.1,0.1-0.1,0.2
			c0,0.1,0,0.1-0.1,0.2c-0.4,0.9-0.7,1.9-1.1,2.9c-0.4,1-0.8,1.9-1.1,2.9c-0.1,0.3-0.2,0.5-0.3,0.7c-0.1,0.2-0.2,0.5-0.3,0.7
			c-0.3,0.7-0.5,1.4-0.8,2.1c-0.3,0.7-0.5,1.4-0.8,2.1c-1,2.3-1.9,4.7-2.7,7.1c-0.9,2.4-1.8,4.7-2.8,7.1c-0.1,0.2-0.1,0.3-0.2,0.5
			c-0.1,0.2-0.1,0.4-0.2,0.6c-0.5,1.3-1.1,2.5-1.7,3.7c-0.6,1.2-1.5,2.2-2.5,2.9c-0.4,0.2-0.7,0.4-1.1,0.5c-0.4,0.1-0.8,0.2-1.3,0.3
			c-0.2,0.1-0.4,0.1-0.5,0.1c-0.2,0-0.4,0-0.6,0c-0.3,0.1-0.5,0.1-0.8,0c-0.1,0-0.3-0.1-0.5-0.1c-0.3-0.1-0.5-0.1-0.8-0.2
			c-0.3-0.1-0.5-0.2-0.6-0.4c-0.2-0.2-0.3-0.4-0.3-0.7c0-0.3,0-0.6,0-0.9c0-0.2,0-0.5,0-0.7c0-0.2,0.1-0.4,0.2-0.5
			c0.2-0.4,0.6-0.5,1.2-0.3c0.4,0.1,0.8,0.1,1.2,0.1s0.8-0.1,1.2-0.2c0.5-0.2,0.9-0.4,1.2-0.8c0.3-0.4,0.6-0.7,0.8-1.1
			c0.2-0.4,0.4-0.9,0.6-1.3c0.2-0.5,0.4-1,0.6-1.4c0.1-0.3,0.3-0.7,0.4-1.1c0.2-0.4,0.2-0.9,0-1.4c-0.2-0.5-0.4-1-0.5-1.5
			c-0.2-0.5-0.4-0.9-0.6-1.4c-0.3-0.7-0.6-1.4-0.9-2.2c-0.3-0.7-0.5-1.4-0.8-2.1c-0.2-0.5-0.4-0.9-0.6-1.4c-0.2-0.5-0.3-0.9-0.5-1.4
			c-0.6-1.5-1.2-3-1.8-4.5s-1.2-3-1.8-4.5c-0.3-0.8-0.6-1.5-0.9-2.3c-0.3-0.7-0.6-1.5-0.9-2.2c-0.1-0.2-0.2-0.5-0.3-0.8
			c-0.2-0.4-0.1-0.7,0.1-0.9c0.1-0.2,0.3-0.3,0.6-0.4c0.1,0,0.2,0,0.2,0C165.5,196.9,165.5,196.9,165.6,196.8z"/>
		<path class="st0" d="M194.7,186.8c0.4,0,0.9,0,1.4,0c0.5,0,0.9,0.1,1.1,0.4c0.2,0.2,0.3,0.5,0.3,0.9c0,0.4,0,0.8,0,1.2v4.5v20.6
			v5.7c0,0.4,0,0.9,0,1.3c0,0.5-0.1,0.9-0.3,1.1c-0.1,0.2-0.3,0.3-0.4,0.3c-0.2,0-0.4,0.1-0.7,0.2h-0.7c-0.4,0-0.7,0-1.1,0
			c-0.3,0-0.6-0.1-0.8-0.3c-0.2-0.3-0.3-0.6-0.3-1c0-0.4,0-0.8,0-1.3v-4.7v-21.2v-5c0-0.4,0-0.8,0-1.2c0-0.4,0-0.8,0.2-1
			c0.1-0.2,0.4-0.4,0.8-0.5c0.1,0,0.1,0,0.2,0C194.5,186.8,194.6,186.8,194.7,186.8z"/>
		<path class="st0" d="M227.6,208.9c0.1,0.3,0.1,0.7,0,1.1c-0.1,0.4-0.2,0.7-0.3,0.9c-0.2,0.1-0.4,0.2-0.7,0.3
			c-0.3,0.1-0.7,0.1-1.1,0.1c-0.4,0-0.8,0-1.2,0c-0.4,0-0.8,0-1.1,0h-13c-0.3,0-0.5,0-0.8,0c-0.3,0-0.5,0.1-0.7,0.2
			c-0.1,0.1-0.3,0.2-0.4,0.4c-0.1,0.1-0.1,0.3-0.2,0.4c-0.1,0.2-0.1,0.4,0,0.5c0,0.2,0.1,0.3,0.1,0.5c0,0.1,0,0.3,0.1,0.4
			c0.1,0.3,0.2,0.5,0.2,0.8c0.1,0.3,0.2,0.6,0.3,0.9c0.8,1.8,2.1,3.1,3.9,3.9c0.2,0.1,0.4,0.2,0.7,0.3c0.2,0.1,0.5,0.2,0.7,0.2
			c0.1,0,0.3,0.1,0.5,0.1c0.5,0.1,1.1,0.2,1.9,0.2c0.8,0,1.4-0.1,1.9-0.2c0.5-0.1,0.9-0.3,1.3-0.4c0.4-0.2,0.8-0.4,1.1-0.6
			c0.4-0.2,0.7-0.5,1-0.9c0.3-0.3,0.5-0.7,0.7-1c0.2-0.3,0.4-0.7,0.5-1.1c0.2-0.4,0.4-0.6,0.8-0.8c0.1-0.1,0.4-0.1,0.7-0.2
			c0.3,0,0.6-0.1,0.9,0c0.3,0,0.6,0.1,0.9,0.1c0.3,0,0.5,0.1,0.6,0.2c0.3,0.2,0.4,0.6,0.3,1.2c-0.3,0.9-0.6,1.7-1.1,2.5
			c-0.7,1.1-1.4,2-2.3,2.7c-0.9,0.7-2,1.3-3.3,1.7c-0.3,0.1-0.7,0.2-1,0.3c-0.3,0.1-0.7,0.1-1.1,0.2c-0.2,0-0.3,0.1-0.5,0.1
			c-0.2,0-0.3,0-0.5,0.1h-0.5c-0.2,0-0.4,0-0.6,0c-0.2,0-0.4,0-0.5,0h-0.5c-0.2,0-0.3-0.1-0.5-0.1c-0.1,0-0.3,0-0.4-0.1
			c-0.2,0-0.4-0.1-0.6-0.1c-0.2,0-0.4-0.1-0.6-0.1c-0.3-0.1-0.6-0.1-0.9-0.2c-0.3-0.1-0.6-0.2-0.9-0.3c-0.1-0.1-0.3-0.1-0.4-0.1
			c-0.1,0-0.2,0-0.4-0.1c-0.5-0.2-1.1-0.5-1.6-0.9c-1-0.6-1.8-1.4-2.5-2.4c-0.7-0.9-1.3-2-1.7-3.1c-0.2-0.4-0.3-0.8-0.4-1.2
			c-0.1-0.4-0.2-0.8-0.4-1.2c0-0.1,0-0.3,0-0.4s0-0.2-0.1-0.4c-0.1-0.3-0.1-0.6-0.2-0.9c0-0.3-0.1-0.6-0.2-0.9v-0.7
			c0-0.1-0.1-0.3-0.1-0.6c0-0.3,0-0.5,0-0.7v-0.6c0.1-0.2,0.1-0.4,0.1-0.5c0-0.2,0-0.4,0-0.5c0.1-0.5,0.3-1.1,0.3-1.6
			c0.1-0.6,0.2-1.1,0.4-1.5c0.2-0.4,0.3-0.7,0.5-1.1c0.2-0.4,0.3-0.8,0.5-1.2c0.7-1.2,1.6-2.2,2.5-3.1c0.9-0.9,2.1-1.6,3.5-2.2
			c0.4-0.2,0.8-0.3,1.3-0.4c0.4-0.1,0.9-0.2,1.3-0.3c0.2,0,0.3-0.1,0.5-0.1c0.1,0,0.3,0,0.5,0c0.1,0,0.2,0,0.3,0
			c0.1,0,0.2,0,0.3-0.1c1.4,0,2.7,0.1,3.7,0.4c1,0.3,2,0.8,2.8,1.3c0.2,0.1,0.3,0.2,0.4,0.3c0.1,0.1,0.2,0.2,0.4,0.3
			c0.3,0.2,0.6,0.5,0.9,0.7c0.3,0.3,0.5,0.5,0.7,0.8c0.5,0.7,1,1.4,1.4,2c0.2,0.4,0.4,0.8,0.6,1.2c0.1,0.5,0.3,0.9,0.5,1.3
			c0.2,0.4,0.3,0.9,0.4,1.4c0.1,0.5,0.2,0.9,0.3,1.4c0.1,0.3,0.1,0.5,0.1,0.7C227.6,208.5,227.6,208.7,227.6,208.9z M222.7,207.2
			c0.1-0.1,0.2-0.3,0.3-0.5c0.1-0.2,0.1-0.5,0-0.7c-0.2-0.7-0.5-1.4-0.9-2.1c-0.5-0.8-1-1.4-1.6-2c-0.6-0.6-1.3-1-2.2-1.4
			c-0.3-0.1-0.5-0.1-0.7-0.2c-0.2-0.1-0.5-0.1-0.8-0.2c-0.3-0.1-0.6-0.1-0.9-0.1c-0.3,0-0.6,0-0.9,0c-0.1,0.1-0.2,0.1-0.4,0.1
			c-0.1,0-0.3,0-0.4,0c-0.3,0.1-0.5,0.1-0.8,0.2c-0.3,0-0.5,0.1-0.7,0.2c-1,0.4-1.8,0.9-2.4,1.5c-0.6,0.6-1.1,1.4-1.6,2.3
			c-0.1,0.2-0.2,0.4-0.3,0.6c-0.1,0.3-0.2,0.5-0.3,0.8c-0.1,0.3-0.1,0.6-0.1,0.9c0,0.3,0.2,0.5,0.4,0.6c0.3,0.2,0.7,0.3,1.4,0.3
			c0.7,0,1.2,0,1.7,0h7.7c0.5,0,1.1,0,1.8,0C222,207.6,222.5,207.5,222.7,207.2z"/>
		<path class="st0" d="M270.6,208.9c0.1,0.3,0.1,0.7,0,1.1c-0.1,0.4-0.2,0.7-0.3,0.9c-0.2,0.1-0.4,0.2-0.8,0.3
			c-0.3,0.1-0.7,0.1-1.1,0.1c-0.4,0-0.8,0-1.2,0c-0.4,0-0.8,0-1.1,0h-13c-0.3,0-0.6,0-0.8,0c-0.3,0-0.5,0.1-0.7,0.2
			c-0.1,0.1-0.3,0.2-0.4,0.4c-0.1,0.1-0.1,0.3-0.2,0.4c-0.1,0.2-0.1,0.4,0,0.5c0,0.2,0.1,0.3,0.1,0.5c0,0.1,0,0.3,0.1,0.4
			c0.1,0.3,0.1,0.5,0.2,0.8c0.1,0.3,0.2,0.6,0.3,0.9c0.8,1.8,2.1,3.1,3.9,3.9c0.2,0.1,0.4,0.2,0.7,0.3c0.2,0.1,0.5,0.2,0.7,0.2
			c0.1,0,0.3,0.1,0.5,0.1c0.5,0.1,1.1,0.2,1.9,0.2c0.8,0,1.4-0.1,1.9-0.2c0.5-0.1,0.9-0.3,1.3-0.4c0.4-0.2,0.8-0.4,1.1-0.6
			c0.4-0.2,0.7-0.5,1-0.9c0.3-0.3,0.5-0.7,0.7-1c0.2-0.3,0.4-0.7,0.5-1.1c0.2-0.4,0.4-0.6,0.8-0.8c0.1-0.1,0.4-0.1,0.7-0.2
			c0.3,0,0.6-0.1,0.9,0c0.3,0,0.6,0.1,0.9,0.1c0.3,0,0.5,0.1,0.6,0.2c0.3,0.2,0.4,0.6,0.3,1.2c-0.3,0.9-0.6,1.7-1.1,2.5
			c-0.7,1.1-1.4,2-2.3,2.7c-0.9,0.7-2,1.3-3.3,1.7c-0.3,0.1-0.7,0.2-1,0.3c-0.3,0.1-0.7,0.1-1.1,0.2c-0.2,0-0.3,0.1-0.5,0.1
			c-0.2,0-0.3,0-0.5,0.1h-0.5c-0.2,0-0.4,0-0.6,0c-0.2,0-0.4,0-0.5,0h-0.5c-0.2,0-0.3-0.1-0.5-0.1c-0.1,0-0.3,0-0.4-0.1
			c-0.2,0-0.4-0.1-0.6-0.1c-0.2,0-0.4-0.1-0.6-0.1c-0.3-0.1-0.6-0.1-0.9-0.2c-0.3-0.1-0.6-0.2-0.9-0.3c-0.1-0.1-0.3-0.1-0.4-0.1
			c-0.1,0-0.2,0-0.4-0.1c-0.5-0.2-1.1-0.5-1.6-0.9c-1-0.6-1.8-1.4-2.5-2.4c-0.7-0.9-1.3-2-1.7-3.1c-0.2-0.4-0.3-0.8-0.4-1.2
			c-0.1-0.4-0.2-0.8-0.3-1.2c0-0.1-0.1-0.3-0.1-0.4s0-0.2-0.1-0.4c-0.1-0.3-0.1-0.6-0.2-0.9c0-0.3-0.1-0.6-0.2-0.9v-0.7
			c0-0.1-0.1-0.3-0.1-0.6c0-0.3,0-0.5,0-0.7v-0.6c0.1-0.2,0.1-0.4,0.1-0.5c0-0.2,0-0.4,0-0.5c0.1-0.5,0.3-1.1,0.3-1.6
			c0.1-0.6,0.2-1.1,0.4-1.5c0.2-0.4,0.3-0.7,0.5-1.1c0.2-0.4,0.3-0.8,0.5-1.2c0.7-1.2,1.6-2.2,2.5-3.1c1-0.9,2.1-1.6,3.5-2.2
			c0.4-0.2,0.8-0.3,1.2-0.4c0.4-0.1,0.9-0.2,1.3-0.3c0.2,0,0.3-0.1,0.5-0.1c0.1,0,0.3,0,0.4,0c0.1,0,0.2,0,0.3,0
			c0.1,0,0.2,0,0.3-0.1c1.4,0,2.7,0.1,3.7,0.4c1.1,0.3,2,0.8,2.8,1.3c0.2,0.1,0.3,0.2,0.4,0.3c0.1,0.1,0.2,0.2,0.4,0.3
			c0.3,0.2,0.6,0.5,0.8,0.7c0.3,0.3,0.5,0.5,0.7,0.8c0.5,0.7,1,1.4,1.4,2c0.3,0.4,0.4,0.8,0.6,1.2c0.1,0.5,0.3,0.9,0.5,1.3
			c0.2,0.4,0.3,0.9,0.4,1.4c0.1,0.5,0.2,0.9,0.3,1.4c0,0.3,0.1,0.5,0.1,0.7C270.5,208.5,270.6,208.7,270.6,208.9z M265.7,207.2
			c0.1-0.1,0.2-0.3,0.2-0.5c0.1-0.2,0.1-0.5,0-0.7c-0.2-0.7-0.5-1.4-0.9-2.1c-0.5-0.8-1-1.4-1.6-2c-0.6-0.6-1.3-1-2.2-1.4
			c-0.2-0.1-0.5-0.1-0.7-0.2c-0.2-0.1-0.5-0.1-0.8-0.2c-0.3-0.1-0.6-0.1-0.9-0.1s-0.6,0-0.9,0c-0.1,0.1-0.2,0.1-0.4,0.1
			c-0.1,0-0.3,0-0.4,0c-0.3,0.1-0.5,0.1-0.8,0.2c-0.3,0-0.5,0.1-0.7,0.2c-1,0.4-1.8,0.9-2.4,1.5c-0.6,0.6-1.1,1.4-1.6,2.3
			c-0.1,0.2-0.2,0.4-0.3,0.6c-0.1,0.3-0.2,0.5-0.3,0.8c-0.1,0.3-0.1,0.6-0.1,0.9c0,0.3,0.2,0.5,0.4,0.6c0.3,0.2,0.7,0.3,1.4,0.3
			c0.7,0,1.2,0,1.7,0h7.7c0.5,0,1.1,0,1.8,0C265,207.6,265.4,207.5,265.7,207.2z"/>
		<path class="st0" d="M299.4,220.3c0,0.5,0,0.9,0,1.3c0,0.4-0.1,0.8-0.3,1c-0.2,0.2-0.5,0.4-0.8,0.4c-0.4,0-0.8,0-1.2,0
			c-0.2,0-0.4,0-0.6,0c-0.2,0-0.4,0-0.5-0.1c-0.3-0.1-0.5-0.2-0.6-0.4c-0.1-0.2-0.2-0.4-0.2-0.6c0-0.2-0.1-0.5-0.2-0.7
			c0-0.1-0.1-0.1-0.1-0.2c-0.1,0-0.1-0.1-0.2-0.2c-0.3,0-0.6,0.1-0.8,0.2c-0.2,0.2-0.4,0.3-0.6,0.5c-0.7,0.5-1.3,0.9-2,1.2
			c-0.6,0.3-1.3,0.5-2.1,0.6c-0.8,0.1-1.6,0.2-2.4,0.2c-0.8,0-1.7,0-2.5-0.1c-0.8-0.1-1.5-0.3-2.1-0.6c-1.8-0.8-3.2-1.7-4.3-3
			c-1.1-1.3-1.9-2.9-2.5-4.8c-0.1-0.3-0.2-0.6-0.3-0.9c0-0.3-0.1-0.7-0.2-1c0-0.2-0.1-0.3-0.1-0.5c0-0.2,0-0.3-0.1-0.5
			c-0.1-0.2-0.1-0.3-0.1-0.5c0-0.2,0-0.4,0-0.5v-0.5c-0.1-0.2-0.1-0.4-0.1-0.7c0-0.3,0-0.5,0.1-0.7v-0.6c0.1-0.2,0.1-0.5,0.1-0.7
			c0-0.3,0-0.5,0.1-0.7c0-0.2,0.1-0.3,0.1-0.4c0-0.1,0-0.3,0-0.5c0.1-0.3,0.2-0.7,0.3-1c0.1-0.3,0.2-0.6,0.3-0.9
			c0.4-1.3,1-2.4,1.7-3.5c0.7-1,1.5-1.9,2.5-2.6c0.6-0.4,1.2-0.7,1.8-1c0.6-0.3,1.3-0.5,2.1-0.7c0.2,0,0.5-0.1,0.7-0.1
			c0.2,0,0.5-0.1,0.7-0.2h0.5c0.3-0.1,0.7-0.1,1.2-0.1c0.5,0,0.9,0,1.2,0.1c0.1,0,0.3,0.1,0.6,0.1c0.4,0.1,0.7,0.2,1.1,0.2
			c0.4,0.1,0.7,0.2,1.1,0.3c0.5,0.2,1,0.4,1.4,0.7c0.5,0.3,0.9,0.5,1.3,0.8c0.2,0.2,0.4,0.4,0.6,0.5c0.2,0.2,0.5,0.2,0.9,0.2
			c0.1-0.1,0.1-0.2,0.2-0.3c0-0.1,0.1-0.2,0.1-0.3c0.1-0.3,0.2-0.7,0.1-1.2c0-0.5,0-0.9,0-1.3v-5.9c0-0.5,0-1,0-1.6
			c0-0.6,0.1-1,0.2-1.3c0.2-0.3,0.4-0.4,0.6-0.5c0.1,0,0.2,0,0.3,0c0.1,0,0.2,0,0.3,0c0.5,0,1,0,1.5,0c0.5,0,0.9,0.2,1.1,0.4
			c0.2,0.3,0.3,0.6,0.3,1c0,0.4,0,0.8,0,1.3V220.3z M295.2,210.7c0.1-0.2,0.1-0.4,0.1-0.7c0-0.3,0-0.5-0.1-0.7v-0.8
			c-0.1-0.3-0.1-0.6-0.2-0.9c0-0.3-0.1-0.6-0.2-0.9c-0.1-0.3-0.1-0.5-0.2-0.8c-0.1-0.2-0.1-0.5-0.2-0.7c-0.4-1-0.9-1.9-1.6-2.7
			c-0.6-0.8-1.5-1.4-2.4-1.9c-0.3-0.2-0.7-0.3-1-0.4c-0.4-0.1-0.7-0.2-1.1-0.2c-0.3-0.1-0.6-0.1-0.9-0.1c-0.3,0-0.6,0-0.9,0
			c-0.2,0-0.3,0.1-0.5,0.1c-0.2,0-0.3,0-0.5,0c-0.3,0.1-0.5,0.1-0.8,0.2c-0.3,0.1-0.6,0.2-0.8,0.3c-1.1,0.5-2,1.2-2.6,2.1
			c-0.7,0.9-1.2,1.9-1.6,3.1c-0.1,0.4-0.2,0.8-0.3,1.1c-0.1,0.4-0.1,0.8-0.2,1.2c0,0.1,0,0.3,0,0.4c0,0.1,0,0.2,0,0.4
			c-0.1,0.2-0.1,0.4-0.1,0.6c0,0.2,0,0.4,0,0.6c0,0.4,0,0.7,0,1.1c0,0.4,0,0.7,0.1,1c0,0.1,0,0.3,0,0.5c0.1,0.2,0.1,0.5,0.2,0.7
			c0,0.2,0.1,0.5,0.2,0.7c0.4,1.2,0.9,2.2,1.5,3.1c0.6,0.9,1.5,1.5,2.4,2.1c0.3,0.2,0.6,0.3,0.9,0.4c0.3,0.1,0.7,0.2,1,0.3
			c0.2,0.1,0.3,0.1,0.5,0.1c0.2,0,0.4,0,0.5,0.1c0.1,0,0.3,0.1,0.4,0.1c0.2,0,0.3,0,0.4,0h0.5c0.1,0,0.3-0.1,0.5-0.1
			c0.3-0.1,0.5-0.1,0.8-0.2c0.3-0.1,0.5-0.1,0.8-0.2c1.1-0.5,2-1.1,2.7-1.8c0.7-0.7,1.3-1.6,1.8-2.8c0.2-0.4,0.3-0.7,0.4-1.1
			c0.1-0.4,0.2-0.7,0.3-1.1c0.1-0.1,0.1-0.3,0.1-0.4c0-0.1,0-0.2,0-0.4c0-0.2,0.1-0.4,0-0.6C295.2,211.1,295.2,210.9,295.2,210.7z"
			/>
		<path class="st0" d="M308.3,196.8c0.5,0,1,0,1.5,0c0.5,0,0.9,0.2,1.1,0.4c0.2,0.3,0.3,0.6,0.3,1c0,0.4,0,0.8,0,1.2v4.8v7.7
			c0,0.7,0,1.5,0,2.3c0,0.8,0.1,1.5,0.3,2.1c0.6,1.5,1.6,2.6,3.1,3.2c0.7,0.3,1.6,0.4,2.7,0.3c1-0.1,1.9-0.3,2.5-0.5
			c1.1-0.5,2-1.1,2.7-1.8c0.7-0.7,1.2-1.7,1.6-2.9c0.1-0.3,0.2-0.5,0.2-0.8c0-0.3,0.1-0.6,0.2-0.9c0-0.2,0-0.3,0-0.5
			c0-0.1,0-0.3,0.1-0.4v-1.1c0.1-0.3,0.1-0.6,0.1-0.9c0-0.4-0.1-0.7-0.1-1v-4v-5.4c0-0.4,0-0.8,0-1.3c0-0.5,0.1-0.8,0.2-1.1
			c0.1-0.2,0.3-0.3,0.5-0.4c0.2-0.1,0.4-0.1,0.7-0.2h0.8c0.4,0,0.8,0,1.1,0.1c0.3,0,0.6,0.2,0.7,0.5c0.2,0.2,0.3,0.4,0.3,0.7
			c0,0.3,0,0.7,0,1v3.5v13.7v4.6c0,0.4,0,0.8,0,1.1c0,0.4-0.1,0.6-0.4,0.8c-0.1,0.1-0.3,0.2-0.6,0.2c-0.3,0.1-0.6,0.1-0.9,0.1
			c-0.3,0-0.6,0-0.9,0c-0.3,0-0.5-0.1-0.6-0.2c-0.2-0.1-0.3-0.4-0.5-0.7c0-0.2-0.1-0.3-0.1-0.6c0-0.2,0-0.5-0.1-0.7
			c0-0.2-0.1-0.4-0.2-0.5c-0.1-0.1-0.3-0.2-0.5-0.1c-0.3,0.1-0.5,0.3-0.8,0.6c-0.3,0.3-0.5,0.6-0.8,0.7c-0.7,0.5-1.6,1-2.5,1.4
			c-0.4,0.2-0.8,0.3-1.1,0.3c-0.4,0.1-0.8,0.1-1.2,0.2c-0.2,0-0.4,0-0.5,0c-0.2,0-0.4,0-0.5,0.1c-0.3,0.1-0.6,0.1-0.9,0h-0.5
			c-0.2-0.1-0.4-0.1-0.6-0.1c-0.2,0-0.4,0-0.6-0.1c-0.1-0.1-0.3-0.1-0.4-0.1c-0.1,0-0.3,0-0.4-0.1c-0.3-0.1-0.5-0.1-0.8-0.2
			c-0.3-0.1-0.5-0.2-0.8-0.3c-0.9-0.4-1.6-0.9-2.2-1.5c-0.6-0.6-1.1-1.4-1.4-2.3c-0.2-0.3-0.2-0.6-0.3-0.9c-0.1-0.3-0.1-0.6-0.2-1
			c-0.1-0.2-0.1-0.4-0.1-0.6c0-0.2,0-0.4-0.1-0.6c0-0.1-0.1-0.2-0.1-0.3c0-0.1,0-0.2-0.1-0.3v-0.5c0-0.1,0-0.3,0-0.5
			c0-0.2,0-0.4,0-0.5v-2v-9.4v-3.3c0-0.3,0-0.6,0-0.9c0-0.3,0.1-0.6,0.2-0.8c0.2-0.2,0.4-0.4,0.8-0.5c0.1,0,0.1,0,0.2,0
			C308.1,196.9,308.2,196.9,308.3,196.8z"/>
		<path class="st0" d="M346.3,196.2c2.5,0,4.6,0.3,6.3,1.1c1.7,0.8,3,1.9,4,3.4c0.4,0.7,0.8,1.5,1.1,2.5c0.1,0.2,0.1,0.4,0.2,0.7
			c0.1,0.3,0,0.5,0,0.7c-0.1,0.2-0.3,0.3-0.5,0.5c-0.1,0.1-0.2,0.1-0.3,0.1c-0.1,0-0.2,0-0.4,0c-0.1,0-0.3,0-0.4,0
			c-0.1,0-0.3,0-0.4,0c-0.4,0-0.7,0-1.1,0c-0.3,0-0.6-0.1-0.9-0.3c-0.3-0.2-0.5-0.5-0.6-0.9c-0.1-0.4-0.3-0.7-0.4-1
			c-0.5-0.9-1.2-1.6-2-2.1c-0.3-0.2-0.6-0.3-0.9-0.4c-0.3-0.1-0.6-0.2-1-0.3c-0.5-0.1-1.1-0.2-1.9-0.2c-0.8,0-1.4,0.1-1.9,0.2
			c-0.2,0.1-0.4,0.1-0.7,0.2c-0.2,0-0.4,0.1-0.7,0.2c-0.9,0.4-1.7,0.9-2.3,1.5c-0.7,0.6-1.2,1.4-1.6,2.3c-0.1,0.3-0.3,0.6-0.4,0.9
			c-0.1,0.3-0.2,0.7-0.3,1.1l-0.3,1.4c-0.1,0.2-0.1,0.4-0.1,0.6c0,0.2,0,0.4-0.1,0.6v0.4c0,0.1-0.1,0.3-0.1,0.7c0,0.3,0,0.5,0.1,0.7
			c0,0.2,0,0.4,0,0.5c0,0.2,0,0.3,0,0.5c0,0.1,0.1,0.4,0.1,0.7c0.1,0.3,0.1,0.6,0.2,0.9c0,0.3,0.1,0.6,0.2,0.9
			c0.4,1.1,0.8,2,1.3,2.8c0.5,0.8,1.2,1.5,2.1,2.1c0.3,0.2,0.6,0.3,0.9,0.5c0.3,0.1,0.7,0.3,1,0.4c0.2,0,0.3,0.1,0.4,0.1
			c0.1,0,0.2,0,0.4,0.1c0.1,0,0.3,0.1,0.5,0.1h0.6c0,0,0.1,0.1,0.2,0.1c0.1,0,0.2-0.1,0.2,0c0.1,0,0.2,0,0.3,0
			c0.2-0.1,0.5-0.1,0.7-0.1c0.2,0,0.4,0,0.7-0.1c0.9-0.3,1.6-0.6,2.3-1c0.6-0.4,1.2-1,1.6-1.7c0.2-0.3,0.3-0.6,0.5-0.9
			c0.1-0.3,0.3-0.6,0.4-0.9c0.1-0.3,0.1-0.5,0.2-0.8c0.1-0.3,0.2-0.5,0.5-0.6c0.1-0.1,0.3-0.2,0.6-0.2c0.3-0.1,0.6-0.1,1-0.1
			c0.4,0,0.7,0,1,0c0.3,0.1,0.6,0.1,0.7,0.2c0.2,0.1,0.4,0.4,0.4,0.6c0.1,0.3,0,0.6,0,0.9c-0.2,0.5-0.3,1-0.5,1.5
			c-0.1,0.5-0.3,0.9-0.6,1.4c-0.5,1-1.1,1.9-1.9,2.7c-0.8,0.8-1.7,1.4-2.8,1.9c-0.3,0.1-0.6,0.3-0.9,0.3c-0.3,0.1-0.6,0.2-1,0.3
			c-0.4,0.1-0.8,0.2-1.1,0.2c-0.4,0-0.7,0.1-1.1,0.1c-0.1,0.1-0.3,0.1-0.4,0.1c-0.2,0-0.3,0-0.4,0h-0.5c-0.3,0-0.5,0-0.8,0
			c-0.3,0-0.5,0-0.7-0.1h-0.3l-1.2-0.2c-0.4-0.1-0.9-0.3-1.3-0.4c-0.4-0.1-0.8-0.2-1.2-0.4c-1.2-0.5-2.2-1.2-3-1.9
			c-0.8-0.7-1.5-1.6-2.2-2.8c-0.2-0.3-0.3-0.6-0.5-0.9c-0.1-0.3-0.3-0.7-0.4-1c-0.2-0.4-0.3-0.8-0.4-1.2c-0.1-0.4-0.2-0.8-0.3-1.2
			c0-0.1-0.1-0.3-0.1-0.4c0-0.2,0-0.3-0.1-0.4c-0.1-0.2-0.1-0.4-0.1-0.7c0-0.2,0-0.5-0.1-0.7V211c0-0.2,0-0.4,0-0.7
			c0-0.3,0-0.6,0-0.7c0-0.2,0.1-0.3,0-0.4c0-0.1,0-0.3,0-0.4c0.1-0.2,0.1-0.5,0.1-0.7c0-0.2,0-0.4,0.1-0.7c0.1-0.6,0.3-1.1,0.4-1.7
			c0.1-0.6,0.3-1.1,0.5-1.6c0.7-1.8,1.6-3.2,2.6-4.3c1-1.1,2.4-2,4.2-2.7c0.4-0.2,0.8-0.3,1.2-0.4c0.4-0.1,0.9-0.2,1.4-0.3
			c0.2,0,0.5-0.1,0.7-0.1C345.8,196.3,346,196.3,346.3,196.2z"/>
		<path class="st0" d="M387.1,221.2c0.1,0.6,0.1,1-0.2,1.3c-0.2,0.4-0.5,0.6-0.8,0.8c-0.2,0.1-0.4,0.1-0.5,0.1c-0.2,0-0.4,0-0.6,0.1
			c-0.7,0.2-1.5,0.1-2.2-0.1c-0.7-0.3-1.2-0.6-1.5-0.9c-0.2-0.2-0.3-0.5-0.5-0.8c-0.1-0.3-0.3-0.6-0.5-0.8c-0.1-0.1-0.2-0.1-0.2-0.2
			c-0.1-0.1-0.2-0.1-0.3-0.1c-0.4,0.1-0.7,0.3-1,0.6c-0.3,0.3-0.6,0.5-0.9,0.7c-0.4,0.3-0.9,0.5-1.4,0.7c-0.5,0.2-1,0.4-1.6,0.6
			c-0.4,0.1-0.7,0.2-1.1,0.2c-0.4,0-0.8,0.1-1.1,0.1c-0.2,0-0.3,0.1-0.4,0.1c-0.1,0-0.2,0-0.4,0c-0.4,0.1-0.7,0.1-1.1,0h-0.5
			c-0.2,0-0.3-0.1-0.5-0.1c-0.2,0-0.3,0-0.5-0.1c-0.1,0-0.2,0-0.3,0c-0.1,0-0.2,0-0.3,0c-0.3-0.1-0.5-0.2-0.8-0.2
			c-0.3-0.1-0.5-0.1-0.8-0.2c-1-0.5-1.8-0.9-2.5-1.5c-0.6-0.6-1.2-1.4-1.6-2.4c-0.3-0.8-0.5-1.6-0.5-2.7v-1.1c0-0.2,0.1-0.3,0.1-0.5
			c0-0.2,0.1-0.4,0.1-0.6c0.1-0.4,0.3-0.8,0.4-1.1c0.1-0.4,0.3-0.7,0.5-1c0.6-1,1.4-1.7,2.5-2.2c1-0.5,2.2-0.9,3.5-1.3
			c0.5-0.2,1-0.3,1.5-0.3c0.5-0.1,1-0.2,1.5-0.3c0.2-0.1,0.5-0.1,0.7-0.1c0.2,0,0.5,0,0.7-0.1c0.3-0.1,0.5-0.1,0.7-0.1
			c0.2,0,0.5,0,0.8-0.1c0.9-0.2,1.6-0.4,2.4-0.5c0.7-0.2,1.3-0.5,1.8-1.1c0.2-0.3,0.4-0.6,0.5-1c0.1-0.4,0.1-0.9,0-1.4
			c-0.2-0.8-0.5-1.5-0.9-1.9c-0.4-0.5-0.9-0.8-1.7-1.1c-0.4-0.2-0.9-0.3-1.4-0.4c-0.6-0.1-1.1-0.1-1.8-0.1c-0.6,0-1.2,0-1.8,0.1
			c-0.6,0.1-1.1,0.2-1.5,0.3c-0.6,0.2-1.1,0.5-1.7,0.9c-0.3,0.2-0.5,0.5-0.7,0.8c-0.2,0.3-0.4,0.7-0.6,1c-0.1,0.3-0.2,0.6-0.3,0.9
			c-0.1,0.3-0.3,0.5-0.5,0.7c-0.1,0.1-0.4,0.2-0.7,0.2c-0.3,0.1-0.6,0.1-1,0.1c-0.3,0-0.7,0-1-0.1c-0.3,0-0.6-0.1-0.7-0.2
			c-0.2-0.1-0.3-0.3-0.3-0.5c-0.1-0.2-0.1-0.5,0-0.8c0.1-0.4,0.2-0.9,0.3-1.2c0.1-0.4,0.3-0.8,0.4-1.1c0.6-1.2,1.5-2.1,2.4-2.8
			c1-0.7,2.2-1.2,3.7-1.6c0.3-0.1,0.7-0.1,1-0.2c0.4,0,0.7-0.1,1.1-0.2c0.1,0,0.4-0.1,0.7,0c0.3,0,0.5,0,0.6-0.1
			c2.4,0,4.5,0.2,6.2,0.8c1.7,0.6,3,1.7,3.7,3.3c0.3,0.7,0.5,1.5,0.5,2.4c0.1,0.9,0.1,1.9,0.1,2.8v11.3c0,0.5,0,0.9,0.1,1.4
			c0,0.5,0.1,0.8,0.3,1.1c0.2,0.2,0.4,0.4,0.7,0.5c0.3,0.2,0.6,0.2,0.9,0.3c0.3,0,0.5,0.2,0.6,0.5c0.1,0.1,0.1,0.2,0.1,0.3
			S387,221,387.1,221.2z M379.8,215.6c0.2-0.5,0.3-1,0.3-1.7c0-0.6,0-1.3,0-2c0-0.4,0-0.7,0-1c0-0.3-0.2-0.6-0.4-0.7
			c-0.1-0.1-0.3-0.1-0.7-0.1c-0.1,0.1-0.2,0.1-0.4,0.1c-0.2,0-0.3,0-0.5,0.1c-0.3,0.1-0.6,0.1-0.9,0.2c-0.4,0.1-0.7,0.1-1,0.2
			c-0.1,0-0.2,0-0.3,0c-0.1,0-0.3,0-0.4,0c-0.5,0.1-1.1,0.2-1.7,0.2c-0.6,0-1.1,0.1-1.6,0.2c-0.3,0.1-0.5,0.1-0.7,0.2
			c-0.2,0.1-0.5,0.1-0.7,0.2c-0.5,0.2-1,0.4-1.5,0.6c-0.5,0.3-0.9,0.6-1.2,0.9c-0.3,0.4-0.6,0.8-0.8,1.4c-0.2,0.5-0.3,1.2-0.2,1.9
			c0,0.3,0.1,0.7,0.2,1c0.1,0.3,0.3,0.5,0.4,0.8c0.3,0.4,0.6,0.7,1.1,0.9c0.4,0.3,0.9,0.5,1.4,0.6c0.2,0.1,0.3,0.1,0.5,0.1
			c0.2,0,0.4,0,0.5,0.1c0.3,0.1,0.5,0.1,0.9,0.1c0.4,0,0.7,0,0.9-0.1c0.2-0.1,0.4-0.1,0.6-0.1c0.2,0,0.4,0,0.6-0.1
			c0.3-0.1,0.5-0.1,0.8-0.2c0.3,0,0.5-0.1,0.7-0.2c1-0.4,1.8-0.9,2.5-1.5C378.9,217.3,379.4,216.5,379.8,215.6z"/>
		<path class="st0" d="M395,188.9c0.5,0,1,0,1.5,0c0.5,0,0.9,0.2,1.1,0.4c0.2,0.2,0.3,0.5,0.3,0.8c0,0.3,0,0.7,0,1.1v2.9
			c0,0.3,0,0.6,0,0.9c0,0.3,0,0.5,0.1,0.7c0.1,0.5,0.4,0.8,0.9,0.9c0.2,0,0.3,0.1,0.5,0.1c0.2,0,0.3,0,0.5,0c0.4,0,0.8,0,1.4,0
			c0.5,0,0.9,0,1.2,0.1c0.3,0.2,0.5,0.4,0.6,0.6c0.1,0.1,0.1,0.3,0.1,0.5c0,0.2,0,0.3,0,0.5c0,0.4,0,0.7-0.1,1
			c0,0.3-0.2,0.6-0.4,0.7c-0.2,0.2-0.5,0.3-0.8,0.3c-0.4,0-0.7,0-1.1,0c-0.4,0-0.8,0-1.1,0c-0.4,0-0.7,0.1-1,0.2
			c-0.2,0.1-0.4,0.3-0.5,0.5c-0.1,0.2-0.2,0.5-0.2,0.9c0,0.3,0,0.7,0,1c0,0.3,0,0.7,0,1v10.1c0,0.8,0,1.5,0,2.4
			c0,0.8,0.1,1.5,0.4,1.9c0.2,0.3,0.4,0.5,0.7,0.5c0.3,0.1,0.6,0.2,1,0.3c0.1,0,0.2,0.1,0.3,0c0.1,0,0.2,0,0.3,0h0.7
			c0.3,0,0.7,0,0.9,0.1c0.3,0.1,0.5,0.2,0.6,0.4c0.1,0.1,0.1,0.3,0.2,0.5c0.1,0.3,0.1,0.5,0.1,0.8c0,0.3,0,0.5,0,0.8
			c0,0.3-0.1,0.5-0.2,0.6c-0.1,0.2-0.4,0.4-0.8,0.5c-0.3,0.1-0.6,0.1-0.9,0.1c-0.3,0-0.6,0-0.9,0c-0.2,0-0.4,0-0.6,0
			c-0.2,0-0.4,0-0.6,0h-0.6c-0.2,0-0.3-0.1-0.5-0.1c-0.2,0-0.3,0-0.5,0c-0.7-0.2-1.3-0.4-1.8-0.6c-0.5-0.2-0.9-0.6-1.2-1.1
			c-0.5-0.7-0.8-1.5-0.8-2.6c-0.1-1-0.1-2.2-0.1-3.3V202c-0.1-0.4-0.2-0.8-0.3-1c-0.1-0.2-0.3-0.4-0.8-0.5c-0.1-0.1-0.3-0.1-0.4,0
			c-0.1,0.1-0.3,0-0.4-0.1H391c-0.4,0-0.8,0-1.1-0.1c-0.3-0.1-0.5-0.3-0.6-0.6c-0.1-0.1-0.1-0.3-0.1-0.5c0-0.2,0-0.3,0-0.5
			c0-0.5,0-0.9,0.1-1.2c0.1-0.3,0.3-0.5,0.6-0.7c0.4-0.1,0.9-0.2,1.5-0.1c0.6,0.1,1.1,0,1.5-0.1c0.3-0.2,0.6-0.4,0.7-0.7
			c0.1-0.2,0.1-0.4,0.1-0.8c0-0.3,0-0.6,0-0.9v-3.2c0-0.3,0-0.6,0-0.8c0-0.3,0-0.5,0.1-0.7c0.1-0.3,0.4-0.5,0.8-0.7
			c0.1,0,0.2,0,0.3,0C394.9,188.9,394.9,188.9,395,188.9z"/>
		<path class="st0" d="M409.5,191.7c-0.3-0.2-0.4-0.6-0.4-1.1c0-0.5,0-1,0-1.6c0-0.3,0-0.6,0-0.9c0-0.3,0-0.6,0.2-0.8
			c0.1-0.3,0.4-0.5,0.8-0.6c0.1,0,0.1,0,0.2,0c0.1,0,0.2,0,0.2,0c0.6,0,1.1,0,1.6,0.1c0.5,0,0.8,0.3,1,0.6c0.1,0.2,0.2,0.4,0.2,0.7
			c0,0.3,0,0.6,0,0.9c0,0.6,0,1.2,0,1.7c0,0.5-0.2,0.9-0.7,1.1c-0.2,0.1-0.4,0.1-0.6,0.1c-0.2,0-0.4,0-0.6,0c-0.4,0-0.7,0-1.1,0
			C410.1,192,409.8,191.9,409.5,191.7z M413.3,220.7c0,0.3,0,0.7,0,1c0,0.4-0.1,0.6-0.2,0.8c-0.1,0.2-0.3,0.3-0.5,0.4
			c-0.2,0.1-0.4,0.1-0.7,0.2h-0.8c-0.4,0-0.8,0-1.1-0.1c-0.3-0.1-0.6-0.2-0.7-0.5c-0.1-0.2-0.2-0.5-0.2-0.8c0-0.3,0-0.6,0-0.9v-21.6
			c0-0.4,0-0.7,0-1.1c0-0.4,0.1-0.6,0.2-0.9c0.1-0.2,0.3-0.3,0.4-0.3c0.2,0,0.4-0.1,0.6-0.2c0.1,0,0.1,0,0.2,0.1
			c0.1,0,0.2,0,0.2-0.1c0.4,0,0.9,0,1.3,0.1c0.5,0,0.8,0.2,1,0.4c0.2,0.2,0.3,0.5,0.3,0.8c0,0.3,0,0.7,0,1V220.7z"/>
		<path class="st0" d="M444.8,208.8c0.1,0.2,0.1,0.5,0.1,0.9c0,0.4,0,0.7-0.1,0.9v0.5c0,0.3-0.1,0.5-0.1,0.7c0,0.2,0,0.5-0.1,0.7
			c-0.1,0.2-0.1,0.4-0.1,0.6c0,0.2-0.1,0.4-0.1,0.6c-0.1,0.4-0.3,0.9-0.4,1.3c-0.1,0.4-0.2,0.8-0.4,1.2c-0.7,1.6-1.7,3-2.8,4.1
			c-1.2,1.1-2.6,2-4.4,2.5c-0.4,0.1-0.8,0.2-1.2,0.3c-0.4,0.1-0.9,0.1-1.3,0.2c-0.2,0-0.4,0.1-0.6,0.1c-0.2,0-0.4,0-0.6,0
			c-0.2,0-0.3,0.1-0.6,0.1c-0.3,0-0.4,0-0.5-0.1c-0.1,0-0.3,0-0.4,0c-0.2,0-0.3,0-0.4,0h-0.3l-1.2-0.2c-0.5-0.1-0.9-0.3-1.4-0.4
			c-0.4-0.1-0.9-0.3-1.3-0.5c-1.5-0.7-2.8-1.6-3.8-2.6c-1-1.1-1.8-2.4-2.4-4c-0.2-0.3-0.3-0.7-0.4-1c-0.1-0.3-0.2-0.7-0.2-1.1
			c-0.1-0.1-0.1-0.3-0.1-0.3c0-0.1,0-0.2,0-0.3c-0.1-0.3-0.1-0.5-0.1-0.8c0-0.3-0.1-0.6-0.1-0.9c0-0.2,0-0.3,0-0.4
			c0-0.1,0-0.3-0.1-0.4c0-0.2-0.1-0.5-0.1-0.9c0-0.4,0-0.7,0.1-0.9c0.1-0.2,0.1-0.5,0.1-0.7c0-0.2,0-0.5,0.1-0.7
			c0.1-0.2,0.1-0.3,0.1-0.4c0-0.1,0.1-0.3,0.1-0.4c0.1-0.4,0.2-0.8,0.3-1.2c0.1-0.4,0.2-0.8,0.4-1.2c0.5-1.3,1.1-2.4,1.9-3.4
			c0.7-1,1.6-1.9,2.7-2.5c0.4-0.3,0.8-0.5,1.3-0.7c0.4-0.2,0.9-0.4,1.4-0.6c0.4-0.2,0.9-0.3,1.3-0.3c0.5,0,0.9-0.1,1.4-0.3
			c0.2,0,0.5,0,0.7,0c0.2,0,0.4,0,0.6-0.1c3,0,5.5,0.6,7.5,1.9c2,1.3,3.4,3,4.3,5c0.2,0.3,0.3,0.7,0.4,1c0.1,0.4,0.2,0.7,0.3,1.1
			c0.1,0.4,0.2,0.8,0.3,1.2c0.1,0.4,0.2,0.9,0.3,1.3c0,0.2,0,0.4,0,0.5C444.7,208.5,444.7,208.6,444.8,208.8z M440.2,211.7
			c0.1-0.2,0.1-0.5,0.1-0.8c0-0.3,0-0.6,0-0.9c0-1.3-0.1-2.5-0.4-3.4c-0.1-0.3-0.2-0.5-0.2-0.8c-0.1-0.3-0.2-0.5-0.3-0.8
			c-0.9-2.2-2.5-3.7-4.5-4.6c-0.2-0.1-0.5-0.2-0.8-0.2c-0.3-0.1-0.5-0.1-0.8-0.2c-0.3-0.1-0.6-0.1-0.9-0.1c-0.3,0-0.6,0-0.9,0
			l-0.9,0.2c-0.3,0.1-0.6,0.2-0.9,0.2c-0.3,0.1-0.6,0.2-0.8,0.3c-0.2,0.1-0.5,0.2-0.7,0.3c-0.2,0.1-0.4,0.3-0.6,0.4
			c-0.8,0.6-1.5,1.3-2,2.1c-0.5,0.8-1,1.8-1.3,2.9c-0.1,0.3-0.2,0.7-0.2,1c0,0.4-0.1,0.7-0.2,1.1c0,0.1-0.1,0.4-0.1,0.7
			c0,0.1-0.1,0.2,0,0.4c0,0.1,0,0.3,0,0.5c0,0.3,0,0.7,0,1c0,0.4,0,0.6,0.1,0.9l0.1,0.6c0.1,0.3,0.1,0.7,0.2,1
			c0.1,0.3,0.2,0.6,0.3,0.9c0.3,0.8,0.7,1.6,1.2,2.3c0.5,0.7,1,1.3,1.7,1.8c0.2,0.1,0.3,0.2,0.5,0.3c0.1,0.1,0.3,0.2,0.5,0.2
			c0.3,0.2,0.6,0.3,0.9,0.4c0.3,0.1,0.7,0.2,1,0.3c0.2,0.1,0.3,0.1,0.5,0.1c0.2,0,0.3,0,0.5,0c0.1,0,0.3,0.1,0.6,0.1
			c0.3,0,0.6,0,0.7-0.1c0.2,0,0.3,0,0.4,0c0.2,0,0.3,0,0.4-0.1c0.3-0.1,0.6-0.1,0.8-0.2c0.3,0,0.5-0.1,0.8-0.2
			c1.1-0.5,2.1-1.1,2.8-2c0.7-0.8,1.3-1.8,1.8-3c0.2-0.4,0.3-0.9,0.3-1.3C440,212.7,440.1,212.2,440.2,211.7z"/>
		<path class="st0" d="M463.1,196.3c2.1-0.1,3.8,0.2,5.1,0.9c1.3,0.7,2.3,1.6,3.1,2.9c0.2,0.3,0.4,0.7,0.5,1.1
			c0.1,0.4,0.2,0.8,0.3,1.2c0.2,0.6,0.3,1.4,0.3,2.1c0,0.7,0.1,1.5,0.1,2.3v5.5v7.9c0,0.6,0,1.2,0,1.7c0,0.6-0.3,1-0.7,1.1
			c-0.2,0.1-0.3,0.1-0.5,0.1c-0.2,0-0.4,0-0.6,0c-0.4,0-0.9,0-1.3,0c-0.4,0-0.7-0.2-0.9-0.4c-0.2-0.3-0.3-0.6-0.3-0.9
			c0-0.4,0-0.7,0-1.1v-4.4V208c0-0.9,0-1.8-0.1-2.7c0-0.9-0.2-1.7-0.5-2.3c-0.3-0.7-0.7-1.2-1.2-1.7c-0.6-0.4-1.2-0.8-1.9-1
			c-0.2-0.1-0.4-0.1-0.6-0.1c-0.2,0-0.4-0.1-0.6-0.1c-0.2,0-0.4,0-0.8,0c-0.4,0-0.6,0-0.7,0.1c-0.2,0.1-0.3,0.1-0.4,0.1
			c-0.1,0-0.2,0-0.4,0c-0.5,0.1-0.9,0.2-1.3,0.3c-0.4,0.1-0.8,0.3-1.1,0.5c-0.1,0.1-0.3,0.1-0.4,0.2c-0.1,0.1-0.2,0.1-0.4,0.2
			c-1.2,0.9-2.1,2.1-2.6,3.8c-0.1,0.3-0.2,0.6-0.2,0.9c0,0.3-0.1,0.6-0.2,0.8c-0.1,0.2-0.1,0.3-0.1,0.5c0.1,0.2,0,0.3-0.1,0.4v1.1
			c0,0.1,0,0.2,0,0.3c0,0.1,0,0.3,0,0.5v1.5v4.9v4.5c0,0.4,0,0.7,0,1.1c0,0.4-0.1,0.7-0.3,1c-0.2,0.3-0.5,0.4-0.9,0.4
			c-0.4,0-0.9,0-1.3,0c-0.3,0-0.5,0-0.8,0c-0.2-0.1-0.4-0.1-0.6-0.3c-0.3-0.2-0.4-0.5-0.4-1c0-0.5,0-0.9,0-1.4v-6v-12.3v-3.1
			c0-0.3,0-0.6,0-0.9c0-0.3,0.1-0.5,0.2-0.7c0.1-0.2,0.3-0.4,0.5-0.4c0.1-0.1,0.3-0.1,0.6-0.1c0.2-0.1,0.5-0.1,0.8-0.1
			c0.3,0,0.5,0,0.8,0.1c0.3,0,0.4,0.1,0.5,0.1c0.4,0.3,0.6,0.5,0.5,0.9c0,0.4,0,0.8,0.2,1.2c0.1,0.2,0.2,0.4,0.4,0.5
			c0.4,0,0.7-0.1,1-0.5c0.3-0.3,0.5-0.6,0.8-0.8c0.5-0.3,1-0.6,1.4-0.9c0.5-0.3,1.1-0.5,1.7-0.7c0.3-0.1,0.6-0.2,0.9-0.2
			c0.3,0,0.6-0.1,0.9-0.2c0.2,0,0.3-0.1,0.5-0.1C462.7,196.3,462.9,196.3,463.1,196.3z"/>
	</g>
</g>
<path class="st0" d="M746.7,80.3l-10.3-4.6V56.1c0-2.5-1.5-4.7-3.6-5.8c-0.4-0.3-37.1-16.9-37.1-16.9c-3.2-1.4-6.9,0.1-8.5,3.2
	c-0.4,0.8-0.9,2-0.9,3.7v12.9l-6.3-2.8c-3.3-1.5-8.9-1.6-12.3-0.3L639.3,61c-3.4,1.3-6.2,5.4-6.2,9l0,113.3c0,3.6,2.7,7.9,6.1,9.4
	l14.5,6.5v5.4c0,3.5,2.9,6.4,6.4,6.4c3.4,0,6.2-2.7,6.4-6.1l24.4,10.9v5.1c0,3.6,2.9,6.5,6.4,6.5c3.3,0,6.1-2.5,6.4-5.7l11.9,5.4
	c3.3,1.5,6.1-0.3,6.1-3.9l0-114.1c0-3.7-2.7-7.9-6.1-9.4l-57.9-26.1c-3.3-1.5-3.3-3.8,0.1-5.1l7.2-2.8c3.4-1.3,8.9-1.2,12.3,0.3
	L733,90.8c3.3,1.5,6.1,5.7,6.1,9.4l-0.3,89.8c0,3.6,3,6.6,6.6,6.6h0.5c3.7,0,6.7-3,6.7-6.6l0.2-100.3C752.8,86,750,81.8,746.7,80.3z
	 M656.5,127.9c1.3,0.8,1.3,0.7,1.8-0.6c0.4-1.2,0.8-1.3,1.7-0.3c0.5,0.6,0.9,1.3,1.3,2c1.1,1.7,2.3,3.5,3.4,5.2
	c0.2,0.3,0.6,0.5,0.9,0.7c0.1-0.4,0.3-0.8,0.3-1.2c-0.2-1.9-0.4-3.9-0.6-5.8c-0.3-1.9-0.6-3.7-0.9-5.6c-0.1-0.4-0.1-0.8,0-1.2
	c0-0.2,0.2-0.6,0.4-0.6c0.2-0.1,0.5,0.1,0.7,0.2c0.3,0.3,0.6,0.6,0.9,0.9c0.5,0.5,1.1,0.9,1.6,1.3c0.6,0.5,0.8,0.5,1.3-0.1
	c0.6-0.7,1.1-1.5,1.7-2.3c0.5-0.7,0.9-1.4,1.3-2.1c0.5-0.8,1.2-0.9,1.8-0.2c0.4,0.4,0.6,1,0.8,1.5c0.6,1.5,1.2,3,1.8,4.5
	c0.4,0.9,0.9,1.7,1.3,2.5c0.7,1.3,1.9,1.8,3.3,1.8c1.3,0,1.8,0.4,1.6,1.7c-0.1,1.4-0.4,2.8-0.7,4.2c-0.3,2.1-0.7,4.2-0.9,6.2
	c-0.1,0.6,0,1.1,0,1.7c0,0.8,0.3,1,1,0.7c0.7-0.3,1.5-0.7,2.1-1.1c0.7-0.5,1.4-1.1,2.1-1.6c1.1-0.8,1.9-0.4,2.3,0.8
	c0.9,3.1,0.7,2.7,3.5,3.5c0.8,0.2,1.6,0.4,2.4,0.6c1.5,0.4,2.3,1.8,1.9,3.3c-0.4,1.5-0.7,3.1-1,4.6c-0.2,0.8-0.1,1.5,0.5,2.1
	c0.4,0.4,0.7,0.8,1,1.1c0.5,0.6,0.5,1.2-0.1,1.7c-0.3,0.3-0.7,0.5-1.1,0.6c-2.5,1.1-4.9,2.1-7.4,3.2c-0.7,0.3-1.4,0.8-2.1,1.2
	c-0.4,0.2-0.5,0.5-0.5,1c0.2,0.8,0.3,1.6,0.4,2.4c0.2,0.8-0.3,1.2-1.1,1c-0.5-0.1-1-0.4-1.4-0.6c-2.6-1.5-5.1-3-7.6-4.5
	c-0.5-0.3-1.2-0.5-1.9-0.9c-0.1,0.7-0.2,1.3-0.2,1.8c0,2.9,0.1,5.7,0.1,8.6c0,0.4,0,0.9-0.1,1.4c0,0.3-0.2,0.5-0.4,0.7
	c-0.3-0.2-0.7-0.4-1-0.7c-0.1-0.1,0-0.4,0-0.6c0-2.8,0-5.5,0-8.2c0-1.1-0.2-2.1-0.2-3.1c-0.1-0.6-0.3-1-0.9-1.2
	c-2.4-0.9-4.9-1.8-7.3-2.6c-0.7-0.2-1.4-0.4-2-0.7c-0.5-0.3-1-0.6-1.4-1c-0.4-0.5-0.6-1-0.4-1.6c0.2-0.6,0.3-1.3,0.3-1.9
	c0-0.5-0.1-1-0.4-1.4c-2-2.8-4-5.5-5.9-8.3c-1.3-1.8-2.6-3.6-3.9-5.4c-0.4-0.6-0.8-1.2-1-1.9c-0.3-0.7-0.1-0.9,0.6-1.1
	c0.3,0,0.5-0.1,0.8-0.2c0.8-0.3,0.9-0.6,0.7-1.4c-0.5-2-0.9-4-1.4-5.9c0,0,0-0.1,0-0.1c0-0.5-0.2-1.2,0.4-1.5c0.6-0.3,1.1,0,1.5,0.3
	C653.8,126.1,655.1,127.1,656.5,127.9z M699.1,49.1l24.3,10.9v9.8L699.1,59V49.1z"/>
</svg>
