<?xml version="1.0" encoding="utf-8"?>
<!-- Generator: Adobe Illustrator 21.0.2, SVG Export Plug-In . SVG Version: 6.00 Build 0)  -->
<svg version="1.1" id="Capa_1" xmlns="http://www.w3.org/2000/svg" xmlns:xlink="http://www.w3.org/1999/xlink" x="0px" y="0px"
	 viewBox="0 0 199.4 170.6" style="enable-background:new 0 0 199.4 170.6;" xml:space="preserve">
<style type="text/css">
	.st0{fill:#FFFFFF;}
</style>
<title>Canny Vectors</title>
<g>
	<path class="st0" d="M125.2,75.9c4.6,1.8,9.3-0.3,13.3-2.5c1.6-0.9,3.2-1.8,4.7-2.7l-2.7-4.6L134.2,55c-5.8-10-15.3-10-21.1,0
		l-6.4,11.1l-3.3,5.7c2.8-0.8,5.8-1.3,8.8-1.4C117.4,70.5,120.6,74.1,125.2,75.9z"/>
	<path class="st0" d="M167.8,113.8l-6.4-11.1l-14.8-25.6c-6.8,4-13.4,8.3-21.7,6.6c-2.8-0.7-5.5-1.9-7.9-3.5
		c-0.9-0.5-1.7-1.1-2.6-1.6c-0.5-0.3-1.1-0.5-1.7-0.6c-2.9-0.4-6.2,0.7-9,1.5c-2.1,0.6-4.1,1.2-6.2,1.8l-12.3,21.4l-6.4,11.1
		c-5.8,10-1,18.3,10.6,18.3h67.9C168.9,132.1,173.6,123.9,167.8,113.8z"/>
	<path class="st0" d="M83.5,69.4c2.5,0,4.8-1.3,6-3.3c1.3-1.6,2.1-3.6,2.1-5.8c0-5-4.1-9.1-9.1-9.1c-0.1,0-0.1,0-0.2,0
		c-0.9-4.2-4.5-7.3-8.9-7.3c-4.4,0-8.1,3.2-9,7.4c-0.4,0-0.8-0.1-1.2-0.1c-5,0-9.1,4.1-9.1,9.1c0,4.1,2.7,7.6,6.5,8.7
		c0.7,0.3,1.5,0.4,2.4,0.4H83.5z"/>
</g>
</svg>
