<?xml version="1.0" encoding="utf-8"?>
<!-- Generator: Adobe Illustrator 21.0.2, SVG Export Plug-In . SVG Version: 6.00 Build 0)  -->
<svg version="1.1" id="Capa_1" xmlns="http://www.w3.org/2000/svg" xmlns:xlink="http://www.w3.org/1999/xlink" x="0px" y="0px"
	 viewBox="0 0 158.3 220.1" style="enable-background:new 0 0 158.3 220.1;" xml:space="preserve">
<style type="text/css">
	.st0{fill:#FFFFFF;}
</style>
<title>Canny Vectors</title>
<g>
	<path class="st0" d="M34.8,119.1c-0.1,0-0.1,0-0.2,0c-0.9-4.2-4.5-7.3-8.9-7.3c-4.4,0-8.1,3.1-8.9,7.3c-0.1,0-0.1,0-0.2,0
		c-5,0-9.1,4.1-9.1,9.1c0,1.6,0.4,3.1,1.1,4.4c1,2.8,3.6,4.7,6.7,4.7h20.6c2.5,0,4.8-1.3,6-3.3c1.3-1.6,2.1-3.6,2.1-5.8
		C43.9,123.2,39.8,119.1,34.8,119.1z"/>
	<path class="st0" d="M150.4,96.4c0-5-4.1-9.1-9.1-9.1c-0.1,0-0.1,0-0.2,0c-0.9-4.2-4.5-7.3-8.9-7.3c-4.4,0-8.1,3.2-9,7.4
		c-0.4,0-0.8-0.1-1.2-0.1c-5,0-9.1,4.1-9.1,9.1c0,4.1,2.8,7.6,6.5,8.8c0.7,0.2,1.5,0.4,2.3,0.4h20.6c2.5,0,4.7-1.3,6-3.3
		C149.6,100.6,150.4,98.6,150.4,96.4z"/>
	<path class="st0" d="M90.9,106.8H56.3c-2.8,0-5.1,2.3-5.1,5.1s2.3,5.1,5.1,5.1h34.6c2.8,0,5.1-2.3,5.1-5.1S93.7,106.8,90.9,106.8z"
		/>
	<path class="st0" d="M88.8,122.6H61.1c-2.3,0-4.1,1.8-4.1,4.1s1.8,4.1,4.1,4.1H70l-10.5,73.4h15.3h14.3l-9.5-73.4h9.2
		c2.3,0,4.1-1.8,4.1-4.1S91.1,122.6,88.8,122.6z"/>
	<path class="st0" d="M61.2,101.1h27c1.6,0,2.8-1.3,2.8-2.8v-0.9c0-1.6-1.3-2.8-2.8-2.8h-8.6V79.8c0-1.6-1.3-2.8-2.8-2.8h-4
		c-1.6,0-2.8,1.3-2.8,2.8v14.8h-8.8c-1.6,0-2.8,1.3-2.8,2.8v0.9C58.3,99.9,59.6,101.1,61.2,101.1z"/>
	<path class="st0" d="M74.3,72.7h0.9c1.6,0,2.8-1.3,2.8-2.8v-6.6c0-1.6-1.3-2.8-2.8-2.8h-0.9c-1.6,0-2.8,1.3-2.8,2.8v6.6
		C71.4,71.4,72.7,72.7,74.3,72.7z"/>
	<rect x="73.4" y="40.3" class="st0" width="2.3" height="20.2"/>
</g>
</svg>
