<svg id="Capa_1" data-name="Capa 1" xmlns="http://www.w3.org/2000/svg" viewBox="0 0 125.33 167.45"><defs><style>.cls-1{fill:#fff;fill-rule:evenodd;}</style></defs><title>Canny Vectors</title><path class="cls-1" d="M64.91,34.6a47.24,47.24,0,1,0,47.24,47.24A47.24,47.24,0,0,0,64.91,34.6ZM82.54,86.86l-1.1.94c-2.66,2.26-5,4.33-5.17,4.61a6.45,6.45,0,0,0,.29,2.68c.26.88-4.83,1-6.75.75a22.94,22.94,0,0,0-3.5-.18V106.8a1.26,1.26,0,0,1-2.53,0V95.54c-1,0-5.73.5-7.48.72-1.93.24-3.29-.3-3-1.18a6.49,6.49,0,0,0,.29-2.68c-.18-.27-2.5-2.35-5.17-4.61l-1.1-.94c-2.66-2.26-4.35-4.35-3.74-4.64s2-1.34,1.79-1.89-.69-2.41-1.14-4.14.59-2.82,2.32-2.43,3.83.61,4,.39a11.37,11.37,0,0,0,.68-1.86c.24-.81,1.54-.16,2.89,1.43s3.4,3.34,3.68,2.75,0-3.72-.57-7-.43-5.54.36-5.11,2.49,1.05,2.82.86a20.05,20.05,0,0,0,2.57-4.18c1.08-2.1,2.85-2.1,3.93,0s2.43,3.89,3,4a5,5,0,0,0,2.46-.64c.79-.43.95,1.87.36,5.11s-1,7.83-.43,7.57a17.15,17.15,0,0,0,3.54-3.36c1.36-1.59,2.64-2.23,2.86-1.43a4.37,4.37,0,0,0,1,2,15,15,0,0,0,3.64-.54c1.73-.39,2.77.7,2.32,2.43s-1,4.73-.82,5a4.78,4.78,0,0,0,1.47,1C86.88,82.51,85.2,84.6,82.54,86.86Z"/></svg>