<?xml version="1.0" encoding="utf-8"?>
<!-- Generator: Adobe Illustrator 21.0.2, SVG Export Plug-In . SVG Version: 6.00 Build 0)  -->
<svg version="1.1" id="Capa_1" xmlns="http://www.w3.org/2000/svg" xmlns:xlink="http://www.w3.org/1999/xlink" x="0px" y="0px"
	 viewBox="0 0 221 244" style="enable-background:new 0 0 221 244;" xml:space="preserve">
<style type="text/css">
	.st0{fill:#FFFFFF;}
</style>
<g>
	<g>
		<path class="st0" d="M73.6,202.3c-3.8,0-6.8-3.1-6.8-6.8V183c0-3.8,3.1-6.8,6.8-6.8c3.8,0,6.8,3.1,6.8,6.8v12.6
			C80.4,199.3,77.4,202.3,73.6,202.3z"/>
	</g>
	<g>
		<path class="st0" d="M113,219.7c-3.8,0-6.8-3.1-6.8-6.8v-13.2c0-3.8,3.1-6.8,6.8-6.8c3.8,0,6.8,3,6.8,6.8v13.2
			C119.8,216.6,116.8,219.7,113,219.7z"/>
	</g>
	<path class="st0" d="M150.4,32.4c-0.4-0.3-39.2-17.8-39.2-17.8c-3.4-1.5-7.3,0.1-9,3.4c-0.4,0.8-1,2.1-0.9,3.9v26.4
		c0,3.8,3,6.8,6.8,6.8c3.8,0,6.8-3,6.8-6.8V31.2l25.7,11.6v20.3c0,3.8,3.1,6.8,6.8,6.8c3.8,0,6.8-3.1,6.8-6.8V38.5
		C154.3,35.8,152.7,33.5,150.4,32.4z"/>
	<path class="st0" d="M165.2,64.1L94.6,32.6c-3.5-1.6-9.4-1.7-13-0.4l-30,11.5c-3.6,1.4-6.6,5.7-6.6,9.5l0,119.8
		c0,3.8,2.9,8.3,6.4,9.9l80.9,36.3c3.5,1.6,6.4-0.3,6.4-4.1l0-120.6c0-3.9-2.9-8.3-6.4-9.9L71.1,57c-3.5-1.6-3.5-4,0.1-5.4l7.6-3
		c3.6-1.4,9.5-1.2,13,0.3l58.8,26.2c3.5,1.6,6.4,6,6.4,9.9l-0.3,95c0,3.8,3.1,7,7,7h0.5c3.9,0,7.1-3.2,7.1-7l0.2-106
		C171.6,70.2,168.7,65.7,165.2,64.1z M69.8,114.5c1.3,0.8,1.4,0.8,1.9-0.6c0.5-1.3,0.9-1.4,1.8-0.3c0.5,0.6,1,1.4,1.4,2.1
		c1.2,1.8,2.4,3.7,3.6,5.5c0.2,0.3,0.7,0.5,1,0.8c0.1-0.4,0.4-0.9,0.3-1.3c-0.2-2-0.4-4.1-0.7-6.1c-0.3-2-0.6-4-0.9-5.9
		c-0.1-0.4-0.1-0.9,0-1.3c0-0.3,0.2-0.6,0.4-0.7c0.2-0.1,0.5,0.1,0.7,0.2c0.3,0.3,0.6,0.6,1,0.9c0.6,0.5,1.1,1,1.7,1.4
		c0.7,0.5,0.9,0.5,1.4-0.1c0.6-0.8,1.2-1.6,1.8-2.4c0.5-0.7,0.9-1.5,1.4-2.2c0.6-0.8,1.3-0.9,1.9-0.2c0.4,0.5,0.7,1,0.9,1.5
		c0.7,1.6,1.2,3.2,1.9,4.7c0.4,0.9,0.9,1.8,1.4,2.7c0.7,1.4,2,1.9,3.4,1.9c1.4,0,1.8,0.4,1.7,1.8c-0.1,1.5-0.5,3-0.7,4.5
		c-0.3,2.2-0.7,4.4-1,6.6c-0.1,0.6,0,1.2,0,1.8c0,0.9,0.3,1,1,0.7c0.8-0.3,1.5-0.7,2.3-1.2c0.8-0.5,1.5-1.1,2.2-1.7
		c1.1-0.8,2-0.5,2.4,0.9c1,3.3,0.7,2.8,3.7,3.7c0.8,0.2,1.7,0.4,2.5,0.6c1.6,0.4,2.4,1.9,2,3.5c-0.4,1.6-0.7,3.3-1.1,4.9
		c-0.2,0.8-0.1,1.6,0.5,2.2c0.4,0.4,0.7,0.8,1.1,1.2c0.5,0.6,0.5,1.2-0.1,1.8c-0.3,0.3-0.7,0.5-1.1,0.7c-2.6,1.1-5.2,2.2-7.8,3.3
		c-0.8,0.3-1.5,0.8-2.2,1.2c-0.4,0.2-0.6,0.5-0.5,1c0.2,0.8,0.3,1.7,0.5,2.5c0.2,0.8-0.3,1.3-1.1,1.1c-0.5-0.1-1-0.4-1.5-0.7
		c-2.7-1.6-5.4-3.2-8.1-4.7c-0.6-0.3-1.2-0.6-2-0.9c-0.1,0.8-0.2,1.3-0.2,1.9c0,3,0.1,6,0.1,9.1c0,0.5,0,1-0.1,1.5
		c0,0.3-0.2,0.5-0.4,0.8c-0.3-0.2-0.7-0.5-1-0.8c-0.1-0.1,0-0.4,0-0.6c0-2.9,0-5.8,0-8.7c0-1.1-0.2-2.2-0.2-3.3
		c-0.1-0.7-0.4-1-1-1.3c-2.6-0.9-5.2-1.9-7.7-2.8c-0.7-0.3-1.4-0.5-2.1-0.8c-0.5-0.3-1-0.7-1.5-1.1c-0.4-0.5-0.6-1-0.4-1.7
		c0.2-0.6,0.3-1.3,0.3-2c0-0.5-0.1-1-0.4-1.4c-2.1-3-4.2-5.9-6.3-8.8c-1.4-1.9-2.8-3.8-4.1-5.7c-0.5-0.6-0.8-1.3-1.1-2
		c-0.3-0.7-0.1-1,0.6-1.1c0.3,0,0.5-0.1,0.8-0.2c0.8-0.4,0.9-0.6,0.7-1.5c-0.5-2.1-1-4.2-1.5-6.3c0,0,0-0.1,0-0.1
		c0-0.6-0.2-1.2,0.4-1.6c0.6-0.4,1.1,0,1.6,0.3C67,112.6,68.3,113.6,69.8,114.5z"/>
</g>
</svg>
