<?xml version="1.0" encoding="utf-8"?>
<!-- Generator: Adobe Illustrator 21.0.2, SVG Export Plug-In . SVG Version: 6.00 Build 0)  -->
<svg version="1.1" id="Capa_1" xmlns="http://www.w3.org/2000/svg" xmlns:xlink="http://www.w3.org/1999/xlink" x="0px" y="0px"
	 viewBox="0 0 168.6 225.3" style="enable-background:new 0 0 168.6 225.3;" xml:space="preserve">
<style type="text/css">
	.st0{fill:#FFFFFF;}
</style>
<title>Canny Vectors</title>
<path class="st0" d="M485.7,112.1h-9.3v9.7c0,0.4-0.1,0.8-0.2,1.2h9.7c-0.1-0.3-0.2-0.7-0.2-1.1V112.1z"/>
<path class="st0" d="M64.6,161.2l0.1-27.9c0-3.1,2.6-5.7,5.7-5.6l27.9,0.1c3.1,0,5.7,2.6,5.6,5.7l-0.1,27.9c0,3.1-2.6,5.7-5.7,5.6
	l-27.9-0.1C67.1,166.9,64.6,164.3,64.6,161.2z"/>
<path class="st0" d="M57.4,190l0-9.9c0-3.5,2.9-6.3,6.4-6.3l41.1,0.2c3.5,0,6.3,2.9,6.3,6.4l0,9.9c0,3.5-2.9,6.3-6.4,6.3l-41.1-0.2
	C60.2,196.3,57.4,193.5,57.4,190z"/>
<path class="st0" d="M117.4,76.9l26.4,0.1c0.2-0.8,0.3-1.6,0.4-2.3c0.2-2.9-2-5.4-4.9-5.6c-0.2,0-0.3,0-0.5,0l-33.3,0.2V32
	c0-1.7-1.4-3.1-3.1-3.1H85.9l-16.8-0.1c-1.2,0-2.3,0.8-2.7,1.9c-0.2,0.4-0.3,0.8-0.3,1.3v29l0,7.3c0,0.1,0,0.2,0,0.4v0.5l-36.4-0.6
	c-2.9-0.1-5.3,2.2-5.4,5.1c0,0.2,0,0.3,0,0.5c0.1,0.8,0.2,1.6,0.4,2.4L51,76.6c1.3,0.1,2.3,1.2,2.2,2.5c-0.1,1.2-1,2.1-2.2,2.2
	l-24.5-0.1c0.9,1.8,1.9,3.4,3.2,4.9l30.1,0.1c1.3,0.1,2.3,1.2,2.2,2.5C62,90,61,91,59.8,91l-25.1-0.1c6.1,4.6,15.9,8.4,31.4,8.6v9.9
	l0,3.7c0,0.2,0,0.4,0,0.6v2.1c0,1.7,1.4,3.1,3.1,3.1h5.5c-0.3-0.5-0.5-1.1-0.5-1.7V99.9c0-1.9,1.6-3.5,3.5-3.5h0.1
	c1.9,0,3.5,1.6,3.5,3.5v17.3c0,0.6-0.2,1.2-0.5,1.7h10.5c-0.3-0.5-0.5-1.1-0.5-1.7V99.9c0-1.9,1.6-3.5,3.5-3.5h0.1
	c1.9,0,3.5,1.6,3.5,3.5v17.3c0,0.6-0.2,1.2-0.5,1.7h2.1c0.1,0,0.1,0,0.2,0h2.6c1.7,0,3.1-1.4,3.1-3.1V99.6c13.6-0.5,22.5-4,28.2-8.2
	L111,91.3c-1.3,0.1-2.4-0.9-2.5-2.2c-0.1-1.3,0.9-2.4,2.2-2.5c0.1,0,0.2,0,0.3,0l27.8,0.1c1.3-1.5,2.3-3.1,3.2-4.9l-24.6-0.1
	c-1.3-0.1-2.3-1.2-2.2-2.5C115.3,77.9,116.2,77,117.4,76.9z M78.3,47.2c-1.8,0-3.3-1.5-3.3-3.3c0-1.8,1.5-3.3,3.4-3.3
	c1.8,0,3.3,1.5,3.3,3.4C81.6,45.7,80.1,47.2,78.3,47.2z M85.5,62.7c-2.4,0-2.2-6-4.2-6c0,0,0.6-5.9,4.3-5.9v0c3.7,0,4.2,6,4.2,6
	C87.8,56.8,87.9,62.7,85.5,62.7z M94.1,47.2c-1.8,0-3.3-1.5-3.3-3.3c0-1.8,1.5-3.3,3.4-3.3c1.8,0,3.3,1.5,3.3,3.4
	C97.5,45.8,96,47.3,94.1,47.2z"/>
</svg>
